<svg xmlns="http://www.w3.org/2000/svg" viewBox="0 0 2067 766">
  <path class="apppa-bright-red" d="M465 0c-.567993 2.888855-1.871002 5.278564-3 8-3.677002-1.437683-8.80899-4.741455-12.437012-1.396606-1.991974 1.836425-1.949981 6.030029-4.84198 6.870422C442.513 14.115723 440.040009 12.234802 438 11.6474c-3.730988-1.074524-9.326996-1.262512-12.81601.670471-4.855987 2.691101-4.914001 8.692505-8.692993 12.082642-4.686004 4.203613-16.285003 1.684509-14.977997 11.574768.221985 1.677917.987 3.416992 1.487 5.024719-10.287994 1.296814-21.242004 13.509094-15.583008 24C388.852997 67.662781 398.799011 77.076477 398 78c6.212067-2.463562 11.760986-3.696716 18-4 11.270996-.547913 48.175995 1.420532 56 2.90509 6.036987 1.14563 13.803009 1.804383 18.686005 5.913636 4.763 4.0083 4.151001 15.809448 2.473999 21.181274-5.940003 19.038025-19.985016 31.239014-33.121003 45-7.332 7.68103-14.601013 20.023987-10.93399 31 1.530975 4.583008 4.016998 10.301025 8 13.231995 6.467987 4.758972 17.526978 4.074035 24.894989 2.419006 15.59201-3.502991 32.276978-8.398987 40.445984-23.651001 5.236023-9.775024 2.548035-21.740967-7.446961-27.015015-4.888-2.578979-11.351013-2.807983-15.850036-5.919006-4.072998-2.816956.482025-19.591003 2.482025-25.065979 3.422974-9.369995 8.244965-19.824707 7.368988-30 21.77002-6.283386 35.450012-29.241821 30.421021-51-1.106019-4.781616-2.778992-13.180115-6.839051-16.378113-2.709961-2.133972-5.577942.197205-8.438965-.908203-4.340026-1.677307-4.763-7.452087-10.143982-8.367248-3.279052-.557801-5.832031 1.638244-8.960022 1.702209C500.552002 9.140381 497.803986 3.655212 497 0c0 0-2.430511-2.829468-7-3-3.590851-.134033-6 3-6 3-1.891998 7.724548-9.679993 4.303162-15 2 .428925-.285889-1.705475-1.854309-2-2-.880341-.435486-.194458.013306-2 0Z"/>
  <path class="apppa-dark-red" d="M232 313c.949997 6.156006 5.828995 9.578003 9.830002 14 6.169998 6.819 11.991012 13.812988 17.720993 21 12.175018 15.27301 22.981995 31.658997 33.626007 48C300.769989 407.656006 309.38501 419.795013 314 433c5.772003-3.182007 4.792999-12.125 6.119995-18 3.619995-16.03299 8.171997-31.76001 14.333008-47C346.981995 337.01001 365.774994 307.352997 395 289.76001c9.325989-5.614014 20.644989-9.56897 31-12.76001-3.290985 6.299988-8.76001 11.927002-12.652008 18-6.166992 9.622009-11.283997 20.239014-15.118988 31-13.213013 37.079987-19.178009 77.686005-18.213989 117 .554992 22.669006 4.982971 45.365997 4.984985 68h5c0-16.963013-.776001-34.125.829987-51 .646026-6.782013-.358002-13.450989 2.124023-20 2.636993-6.955994 7.269989-12.789001 10.699005-19.285004C416.350006 396.658997 432.72699 373.786011 450.29599 353c6.785004-8.027008 14.192017-15.450989 21.319-23.165985 2.507996-2.715027 6.701996-5.502014 8.187012-8.924011 1.569-3.610993-.067017-9.153992-.516998-12.910004-1.035004-8.656006-1.707001-17.347992-2.860993-26-2.075012-15.567993-2.916015-31.369019-4.589996-47C470.447998 222.049988 468 209.025024 468 196c-10.941986-.317993-19.799011-10.984009-19.812988-22-.006012-4.087036 1.843994-8.30603 3.431976-12 4.705017-10.942017 15.077026-18.023987 23.342011-26.088989 11.970001-11.682007 22.089996-29.900025 19.748992-46.910218-1.546997-11.239868-16.780609-11.63916-25.709991-13-6.420349-.978454-43.639008-4.30017-56-2.816406-10.131989 1.216431-20.61499 5.203003-30 9.068726C364.842987 89.731995 351.295013 107.447998 341.851013 124c-15.190002 26.624023-23.636017 56.278992-30.35202 86-3.020996 13.369019-4.095001 27.010986-8.738007 40-8.720001 24.393005-25.669983 43.535004-48.760986 55.243988-6.869995 3.483002-14.246002 7.07901-22 7.756012ZM509 88c-3.20401 13.304016-10.71701 27.30603-11 41 8.777008-.765015 17.098999-4.185974 26-4.815979 7.754028-.548035 16.132019.815979 24 .815979-1.880005-5.575012-6.012024-9.645996-9.844971-14C530.414001 102.205994 520.476013 91.656921 509 88Z"/>
  <path class="apppa-white" d="M473 93.5c0-4.694397-3.805573-8.5-8.5-8.5s-8.5 3.805603-8.5 8.5 3.805573 8.5 8.5 8.5 8.5-3.805603 8.5-8.5Z"/>
  <path class="apppa-green" d="M60 223c1.383598 4.786987 5.027 6.594971 9 9.294006 6.634201 4.507996 13.074097 9.190003 19.7145 13.609986 7.120202 4.73999 13.678498 11.25299 20.195504 16.809997 8.445999 7.202027 17.430999 14.14502 25 22.286988C175.317993 329.544006 206.929001 380.194 228.264008 437c5.101989 13.585999 9.380996 27.147003 13.693985 41C245.132996 488.196014 248.778 499.248993 249 510c-6.535004-6.471985-8.772003-17.816986-12.806-26-6.707-13.606995-15.751007-26.054993-26.233001-37C179.972 415.688995 139.507004 399.479004 98 390.640015c-14.4571-3.07901-29.089302-6.254029-44-5.601014C35.3969 385.854004 18.146299 393.320007 0 396c3.35098 4.747986 11.7059 4.368988 17 5.516998 13.648998 2.959992 27.989201 6.428009 41 11.572998 40.961998 16.195008 78.115997 40.35199 109.423996 71.485993C177.973999 495.066986 187.529007 506.454987 198.001007 517c1.429993 1.440002 10.96199 9.749023 5.666 11.653992-3.102005 1.116028-7.444-4.661011-9.706008-6.273987C185.046005 516.023987 176.347 509.321014 167 503.556c-6.419006-3.959992-14.059006-6.632996-21-9.571015-7.619003-3.224975-14.973999-7.011993-23-9.23999-18.675003-5.182007-37.905602-5.714996-57-3.169006-6.8134.90802-12.429199 2.641998-19 4.5-5.044201 1.427002-9.993198 2.240997-13 6.924011 33.745102 6.960999 70.704002 17.938995 98 39.807983 8.274994 6.629029 21.210007 15.507996 24 26.192017-4.934998 1.796021-9.263 4.744019-14 6.97998-16.132996 7.616028-31.806 15.552002-47 24.848999C87.023201 595.710999 77.226196 600.01001 72 608c7.743896-.776001 14.647202-5.08197 22-7.383972 19.350998-6.059998 38.276001-14.005005 58-18.95105 62.339996-15.632996 125.656006-24.22699 190-22.649963 51.786987 1.268005 103.153992 9.679992 153 23.765991 18.140991 5.125976 36.284973 10.778015 54 17.172973 9.078979 3.277039 18.320007 9.196045 28 10.046021-2.224976-7.315979-10.091003-11.119995-16-15.424011-13.661011-9.951966-27.893005-19.919007-44-25.560974-6.570007-2.302002-13.269012-4.617005-20-6.385987-2.434998-.640014-6.602997-1.150024-7.627991-3.90802-1.365997-3.674987 3.798981-8.304992 5.914002-10.721008C502.89801 539.30603 511.03302 530.773987 520 523.463989c13.471985-10.984009 28.125977-20.129974 42.999023-29.067993 3.865967-2.322998 7.065979-5.730987 11.039978-7.790008 8.994019-4.660981 18.719971-7.989991 27.960999-12.140992 14.018005-6.29599 29.690002-14.20401 45-16.464996v-2c-18.434998-.076996-37.492004-2.759003-56-.916992-33.960022 3.380981-64.583008 11.332977-94 28.833984C485.019012 491.044006 474.437988 499.92099 466 511c-1.36499 1.791992-5.403992 12.033997-8.278015 7.861023-1.356995-1.971008-.523987-4.82605.111023-6.861023 1.54599-4.945007 2.537994-9.975006 3.806-15 5.371978-21.290009 11.768982-42.897003 20.610992-63 2.622009-5.962006 4.790009-12.19101 7.694-18 .876007-1.751007 2.291992-6.526001 4.056-5 4.514008-8.526001 8.144012-17.638 13.006989-26 4.897003-8.42099 10.884002-15.984009 16.298004-24.015015 14.770996-21.91098 31.155029-43.155975 50.981018-60.97998 13.236999-11.902008 28.065002-23.353027 42.729004-33.5C622.286011 262.858032 631.98999 260.421997 634 254c-8.528992 2.030029-17.356018.261963-26 1.286011-15.997986 1.892944-32.094971 6.676025-47 12.778991-11.961975 4.898011-22.859009 11.330994-34 17.741028-7.075012 4.06897-14.223022 7.366974-20.910004 12.167969-7.287994 5.231995-13.46701 11.865997-20.089996 17.855988C464.144012 335.596008 445.556 357.256989 428.115997 381c-9.341003 12.716003-17.154998 26.088989-24.934997 39.714996-3.773987 6.610016-8.748993 12.832001-10.880005 20.285004-1.704987 5.963013-.893005 11.931-1.471008 18C389.192993 476.201996 390 493.708008 390 511h-5c0-22.596985-3.971008-45.398987-4.960999-68-1.21701-27.809998 2.112-57.980988 8.855988-85 3.72702-14.928986 7.893005-31.247009 14.926025-45 3.073975-6.011993 6.485993-12.351013 10.182984-18 3.18399-4.86499 9.657959-12.355286 11.996002-18-13.745941.765869-29.34201 10.692017-40 18.290985C356.480011 316.338013 337.971008 351.963013 327.346985 386c-3.119995 9.997009-5.957977 20.701996-7.886994 31-1.108978 5.917999-.53598 11.898987-5.459991 16-1.910004-7.903015-6.996002-16.066986-11.203003-23-8.368011-13.791992-17.722992-26.80899-26.792999-40.089996-12.695008-18.587006-26.789993-35.098999-41.744003-51.856018C195.923004 275.094971 146.697998 233.825012 88 224.325012 78.995201 222.867004 69.124397 223 60 223Z"/>
  <path class="apppa-dark-red" d="M60 285c.522697 25.324005 7.755798 51.561005 13.873497 76 1.600906 6.394989 3.405502 12.734985 5.456703 19 .735802 2.247009 1.223396 5.463013 3.233101 6.976013 3.5532 2.674988 11.139496 2.399994 15.436699 3.194 9.559998 1.765992 19.690002 4.955994 29 7.803986 26.824997 8.204987 50.330002 22.235016 72 39.829987C213.705994 449.743988 225.716003 465.362 234.625 482c2.927002 5.464996 5.427002 11.260986 7.772003 17 1.666992 4.080994 2.806 8.510986 6.602997 11-.121994-14.677002-6.121002-29.053986-10.091003-43-10.90799-38.319-27.276993-75.149994-48.251999-109-6.181-9.975006-12.572998-19.529999-19.541001-29-2.822998-3.835999-5.539001-9.333008-9.442001-12.143005-3.468002-2.49701-8.616989-2.493988-12.673996-3.306-7.716003-1.544006-15.391006-3.434998-23-5.434998C103.362999 302.164001 81.777901 293.446991 60 285Zm433 124c-14.213013 25.955994-22.697998 55.653992-30.575989 84-1.857025 6.68399-4.369018 14.140015-5.210022 20.999023-.214996 1.747986-.451996 5.620972 1.971009 6.079956 2.471008.467042 3.817016-3.523986 4.790008-5.083984 3.666992-5.872986 8.200989-11.60199 13.449005-16.136993 5.408997-4.674988 11.557984-9.261017 17.575989-13.151001 3.156006-2.040009 7.941986-3.884003 9.958008-7.225006 2.432983-4.031983-.442993-13.079987-1.208008-17.481995-2.203003-12.682007-3.979004-25.454987-6.863007-38-1.084991-4.721985-1.076995-9.957001-3.886993-14Zm-390 26c1.414001 6.566986 5.066002 11.394012 8.575996 17 5.540001 8.848999 10.969002 17.687988 17.308007 26 3.571991 4.683014 7.257003 10.683014 12.205993 14.006012 10.543 7.082001 23.317002 10.089996 33.910004 17.583984 7.561005 5.347992 15.729004 10.194977 22.576004 16.480011 1.647003 1.511963 5.162003 5.169983 7.376999 2.307007 2.151993-2.780029-1.27301-6.471985-3.012009-8.377014-5.526993-6.057007-11.215988-12.078003-16.904999-17.984985-16.833999-17.479004-34.054-33.301026-53.035995-48.46402-8.345001-6.665985-18.477997-15.843994-29-18.550995Z"/>
  <path class="apppa-black" d="m2007.864014 606.728027 2.015991.223999c2.800049.335938 4.255981 1.567994 5.823974 5.487976l18.479981 45.247986-2.575928 6.832032c-3.583984 9.407959-7.952026 14.671997-12.208008 14.671997-1.791992 0-3.807983-.895996-5.712036-2.57605h-1.455932l-2.688111 8.400024c2.128052 1.119995 3.920044 1.679993 6.048096 1.679993 7.503906 0 12.319946-4.031983 16.575928-13.776001l22.736084-52.415955c4.47998-10.192016 6.60791-13.328003 9.407959-13.552002l3.135986-.223999v-3.135986c-3.583984.223999-7.055908.335938-10.639893.335938-3.583984 0-7.056152-.111939-10.640136-.335938v3.135986l2.912109.223999c4.704102.335938 5.711914 1.679993 4.031983 5.711975l-13.328003 32.70398c-2.464112-4.255981-3.584107-6.83197-5.712037-12.320007l-7.167968-18.815979c-1.904053-4.927979-1.680054-7.05597 2.687988-7.279969l4.255981-.223999v-3.135986c-4.368042.223999-8.624023.335938-12.992065.335938-4.36792 0-8.623901-.111939-12.991943-.335938Zm-44.911988 48.607972c4.591919-.223999 9.18396-.335999 13.776001-.335999 5.375977 0 10.640015.112 16.015992.335999v-3.359986l-5.823975-.335998c-5.040039-.335999-5.264038-.671997-5.264038-8.064026v-19.263977c0-6.719971 4.47998-12.320008 9.968017-12.320008 3.359986 0 5.712037 1.567994 7.504029 5.151978h2.351928l1.008057-13.440003c-1.232056-.783996-3.248047-1.231994-5.264038-1.231994-3.359985 0-6.94397 1.792053-9.29602 4.59198l-6.271973 7.392029v-11.536011l-1.008057-.447998c-5.711914 2.35199-11.535888 3.919983-17.471924 4.59198v3.136047h4.143921c4.480103 0 4.928101.783997 4.928101 8.175965v25.200012c0 7.05603-.33606 7.840027-4.144043 8.064026l-5.151978.335998Zm-36.400024-42.671998 8.511963-.447998v32.255982c0 8.288025 3.696045 11.872009 12.320068 11.872009 2.575928 0 5.263916-.559997 5.935913-1.343994l5.376099-5.936035-1.456055-1.903931c-2.800049 1.567993-4.47998 2.12793-6.608032 2.12793-4.36792 0-6.159912-2.23999-6.159912-7.727966v-29.343995h14.335937l1.008057-6.048034-15.343994.671997v-4.255982c0-4.703979.335937-8.735962 1.231933-15.903991l-1.343994-1.231995c-2.687988 1.679993-6.047973 3.135986-9.520019 4.255981.336059 3.359986.447998 5.488038.447998 8.848023v7.839966l-8.735962 3.920044Zm-32.70398 42.671998c4.70398-.223999 9.296021-.335999 14-.335999 4.70398 0 9.296021.112 14 .335999v-3.359986l-5.151977-.335998c-3.808106-.223999-4.144043-1.007996-4.144043-8.064026v-68.992005l-1.008057-.895996c-4.927978 1.904053-8.623901 2.800049-17.471924 4.144043v3.135987h6.271973c2.015991 0 2.800049 1.231994 2.800049 4.59198v58.015991c0 7.05603-.33606 7.840027-4.144043 8.064026l-5.151978.335998Zm-67.87207-45.135987h4.144043c4.479981 0 4.927979.783997 4.927979 8.175965v18.81604c0 7.839965.671997 11.312011 2.687988 14.111999 2.463989 3.359985 6.720093 5.039978 13.104004 5.039978 5.040039 0 9.520019-1.567993 12.544067-4.367981l7.503906-6.944031c0 3.248047-.111938 5.040039-.447998 10.304017 3.136109-.223999 6.160035-.335999 9.296021-.335999s6.160034.112 9.29602.335999v-3.359986l-4.592041-.335998c-3.807983-.223999-4.14392-.895996-4.14392-8.064026v-40.656006l-1.008057-.447998c-5.711914 2.35199-11.536011 3.919983-17.471924 4.59198v3.136047h4.143921c4.47998 0 4.927978.783997 4.927978 8.175965v18.256042c0 2.463989-1.567993 5.599976-4.14392 8.175964-3.135987 3.135987-6.719971 4.704041-11.088013 4.704041-3.920044 0-7.05603-1.231995-8.848023-3.360046-1.567993-1.791993-2.351928-5.263978-2.351928-10.192017v-33.039978l-1.008057-.447998c-5.712036 2.35199-11.536011 3.919983-17.472046 4.59198Zm-59.583984 20.495972c0 15.791992 9.968017 26.544006 24.416015 26.544006 17.248047 0 29.567994-11.984009 29.567994-28.783996 0-15.119995-10.975953-25.984009-26.319947-25.984009-16.352051 0-27.664062 11.536011-27.664062 28.223999Zm10.416015-3.807984c0-13.440002 5.375977-20.720031 15.232056-20.720031 10.303955 0 17.919922 11.200012 17.919922 26.432007 0 12.880004-5.711914 20.94403-14.783936 20.94403-10.976074 0-18.368042-10.752014-18.368042-26.656006Zm-73.024047 28.447999c5.488037-.223999 10.864013-.335999 16.35205-.335999 5.488037 0 10.976075.112 16.46399.335999v-3.359986l-5.375977-.335998c-5.151978-.335999-5.712036-1.231995-5.712036-10.080017v-58.46399c3.920044-.895996 7.167969-1.343994 10.976074-1.343994 12.095947 0 18.591919 5.599976 18.591919 16.23999 0 10.080017-6.831909 17.135987-16.575928 17.135987-2.35205 0-4.032104-.223999-6.943969-1.119995l1.119873 4.032043c2.687988.559937 4.256103.671997 6.496093.671997 15.343995 0 27.104004-10.416015 27.104004-23.856018 0-10.752014-8.736084-17.360046-22.959961-17.360046-6.384033 0-12.656005.336059-19.040039.336059-6.832031 0-13.552002-.11206-20.384033-.336059v3.360046l5.040039.335999c5.040039.335998 5.936035 1.791992 5.936035 10.079956v50.288025c0 8.848022-.560058 9.744018-5.712158 10.080017l-5.375976.335998Zm-94.975953-24.528016c0 8.960022 3.024048 16.352051 8.512085 20.832032 3.807862 3.247985 9.072022 4.703979 16.351929 4.703979 2.23999 0 4.81604-.447998 5.375977-.895996l12.432006-10.416016-.560058 10.304017c2.912109-.223999 5.712158-.335999 8.624023-.335999 3.360108 0 6.832032.112 10.192139.335999v-3.359986l-5.1521-.335998c-3.807983-.223999-4.144043-1.007996-4.144043-8.064026v-68.992005l-1.007934-.895996c-4.927979 1.904053-8.624024 2.800049-17.472046 4.144043v3.135987h6.271973c2.016113 0 2.800048 1.231994 2.800048 4.59198v20.496032c-6.271972-2.688049-9.407959-3.584045-13.328003-3.584045-3.024047 0-5.712036.671997-8.511962 2.127991l-9.856079 5.152038c-6.383912 3.359986-10.527955 11.53595-10.527955 21.055969Zm9.744019-3.695983c0-12.208008 6.047974-19.376038 16.12793-19.376038 4.256103 0 8.736084 1.456055 12.656006 4.144043 2.35205 1.567993 3.696044 3.023987 3.696044 3.919983v14.447998c0 7.280029-.223999 8.400024-1.679931 10.976013-3.135987 5.263977-8.624024 8.736023-13.888062 8.736023-9.856079 0-16.911987-9.52002-16.911987-22.848022Zm-64.400024 3.359985c0 7.05603 1.567993 13.104004 4.703979 17.360046 4.368042 5.935974 11.984131 9.407959 20.384033 9.407959 4.144043 0 8.288086-.895996 12.880005-2.911987 3.024048-1.231995 5.375977-2.687988 5.823975-3.359985l2.240112-3.807984-1.456055-1.120056c-7.167968 4.256043-9.744018 5.264038-14.560058 5.264038-7.28003 0-13.327881-3.247986-16.46399-8.736023-2.128051-3.695984-2.911987-6.832031-3.135986-13.328003h16.351929c7.728027 0 12.544067-.335998 20.272095-1.567993.111938-1.567993.223999-2.575989.223999-3.919983 0-12.880005-8.288086-21.280029-20.832032-21.280029-4.144043 0-8.959961 1.455994-13.552002 4.143982-9.18396 5.264038-12.880004 12.208008-12.880004 23.856018Zm10.640014-5.711975c0-5.264038.447998-7.728028 1.904053-10.640015 2.351929-4.927978 7.167969-7.952026 12.543945-7.952026 3.696045 0 6.608032 1.456054 8.624024 4.480041 2.463989 3.695984 3.583984 6.944031 3.583984 14.447998l-12.543945.335999c-5.1521 0-8.063965-.112-14.112061-.671997Zm-55.439941 30.575989C1513.94397 655.112 1518.536011 655 1523.12793 655c5.376098 0 10.640136.112 16.016113.335999v-3.359986l-5.823975-.335998c-5.040039-.335999-5.264038-.671997-5.264038-8.064026v-19.263977c0-6.719971 4.479981-12.320008 9.967896-12.320008 3.360107 0 5.712158 1.567994 7.50415 5.151978h2.351929l1.007934-13.440003c-1.231933-.783996-3.247924-1.231994-5.263916-1.231994-3.360107 0-6.944091 1.792053-9.29602 4.59198l-6.271973 7.392029v-11.536011l-1.008056-.447998c-5.712036 2.35199-11.536011 3.919983-17.472046 4.59198v3.136047h4.144043c4.47998 0 4.927978.783997 4.927978 8.175965v25.200012c0 7.05603-.335937 7.840027-4.143921 8.064026l-5.151977.335998Zm-67.872071-45.135987h4.144043c4.479981 0 4.927979.783997 4.927979 8.175965v18.81604c0 7.839965.671997 11.312011 2.687988 14.111999 2.463989 3.359985 6.719971 5.039978 13.104004 5.039978 5.040039 0 9.52002-1.567993 12.543945-4.367981l7.504151-6.944031c0 3.248047-.112061 5.040039-.44812 10.304017 3.136108-.223999 6.160034-.335999 9.29602-.335999 3.135987 0 6.160034.112 9.296021.335999v-3.359986l-4.592041-.335998c-3.807984-.223999-4.143921-.895996-4.143921-8.064026v-40.656006l-1.008057-.447998c-5.711914 2.35199-11.536011 3.919983-17.471924 4.59198v3.136047h4.143921c4.479981 0 4.928101.783997 4.928101 8.175965v18.256042c0 2.463989-1.568115 5.599976-4.144043 8.175964-3.135986 3.135987-6.719971 4.704041-11.088135 4.704041-3.919922 0-7.055908-1.231995-8.8479-3.360046-1.567993-1.791993-2.352051-5.263978-2.352051-10.192017v-33.039978l-1.007935-.447998c-5.712036 2.35199-11.53601 3.919983-17.472046 4.59198Zm-36.063964 2.463989 8.511963-.447998v32.255982c0 8.288025 3.696044 11.872009 12.320068 11.872009 2.575928 0 5.263916-.559997 5.936035-1.343994l5.375977-5.936035-1.456055-1.903931c-2.800049 1.567993-4.479981 2.12793-6.608032 2.12793-4.368042 0-6.160034-2.23999-6.160034-7.727966v-29.343995h14.336059l1.007935-6.048034-15.343994.671997v-4.255982c0-4.703979.336059-8.735962 1.232055-15.903991l-1.343994-1.231995c-2.687988 1.679993-6.047974 3.135986-9.52002 4.255981.33606 3.359986.447999 5.488038.447999 8.848023v7.839966l-8.735962 3.920044Zm-44.911988 41.888001c5.823975 1.903992 10.192017 2.687988 15.343994 2.687988 14.671998 0 25.088013-7.839966 25.088013-18.815979 0-3.471985-.895996-6.048034-3.135986-8.288025-2.91211-2.911987-6.608032-4.143982-16.464111-6.047973-9.18396-1.791992-12.208008-4.031983-12.208008-9.184021 0-5.599976 3.920044-8.736023 10.752075-8.736023 7.504028 0 13.215942 3.920044 13.215942 9.184021v2.575989h3.135987c.11206-6.495972.224121-9.18396.560058-12.656006-5.936035-2.015992-9.968017-2.799988-14.560058-2.799988-12.991944 0-20.943848 6.160034-20.943848 16.240051 0 5.375977 2.463867 9.18396 7.615967 11.53595 3.023926 1.343994 8.959961 3.136047 16.575927 4.815979 5.04004 1.119995 7.167969 3.472046 7.167969 7.728027 0 6.047974-5.599975 10.304016-13.552002 10.304016-8.176025 0-14-3.919983-14-9.520019v-4.59198h-3.359863c0 7.728027-.33606 11.088012-1.232056 15.567993Zm-55.776001-11.984009c0 8.736023 5.263916 13.776001 14.112061 13.776001 2.015869 0 3.919922-.335998 4.703857-.895996l13.888062-9.632019-.559937 9.52002c2.911866-.223999 5.823975-.335999 8.73584-.335999 2.800049 0 5.488037.112 8.288086.335999v-3.359986l-4.36792-.223999c-2.687988-.111999-3.135986-1.007995-3.135986-6.496033V624.76001c0-16.352051-4.704102-22.288025-17.696045-22.288025-4.81604 0-9.296021 1.231994-13.552002 3.808044l-5.936035 3.583985v7.279968l2.911987.783997 1.455933-3.471985c2.23999-5.263977 3.472046-6.048035 8.624023-6.048035 10.528076 0 14.895996 4.144043 15.232056 14.33606l-11.088013 2.015991c-15.231933 2.799988-21.615967 8.063965-21.615967 17.807983ZM1314.359985 641c0-4.143982 2.239991-8.063965 5.599976-10.192017 2.800049-1.679992 8.959961-3.247985 17.472046-4.47998V641.112c-3.247925 4.591979-10.304077 8.848022-14.671997 8.848022-4.479981 0-8.400025-4.144043-8.400025-8.960022Zm-73.920044 14.335999C1245.927979 655.112 1251.303955 655 1256.791992 655s10.976074.112 16.463989.335999v-3.359986l-5.375976-.335998c-5.151978-.335999-5.712036-1.231995-5.712036-10.080017v-58.46399c3.920044-.895996 7.167969-1.343994 10.976074-1.343994 12.095947 0 18.592041 5.599976 18.592041 16.23999 0 10.080017-6.832031 17.135987-16.576172 17.135987-2.351929 0-4.031982-.223999-6.943848-1.119995l1.119874 4.032043c2.687988.559937 4.256103.671997 6.496093.671997 15.343994 0 27.104004-10.416015 27.104004-23.856018 0-10.752014-8.736084-17.360046-22.959961-17.360046-6.384033 0-12.656006.336059-19.040039.336059-6.832031 0-13.552002-.11206-20.384033-.336059v3.360046l5.040039.335999c5.040039.335998 5.936035 1.791992 5.936035 10.079956v50.288025c0 8.848022-.560058 9.744018-5.712158 10.080017l-5.375977.335998Zm-94.975952 0C1150.05603 655.112 1154.76001 655 1159.352051 655c4.591919 0 9.295898.112 13.887939.335999v-3.359986l-5.040039-.335998c-3.807983-.223999-4.143921-1.007996-4.143921-8.064026v-23.743958c0-5.040039 7.391968-10.528015 14.223999-10.528015 7.503907 0 12.432007 5.599976 12.432007 14.223999v31.807984c2.911987-.223999 5.935913-.335999 8.848023-.335999 3.135986 0 6.159912.112 9.295898.335999v-3.359986l-4.591919-.335998c-3.807983-.223999-4.144043-.895996-4.144043-8.064026v-21.616028c0-13.103943-6.160034-19.487976-18.703979-19.487976-4.144043 0-6.495972.783996-8.848023 2.799988l-8.511963 7.392028v-9.744018l-1.008056-.447998c-5.712036 2.35199-11.536011 3.919983-17.472046 4.59198v3.136047h4.144043c4.47998 0 4.927978.783997 4.927978 8.175965v25.200012c0 7.05603-.335937 7.840027-4.143921 8.064026l-5.040039.335998Zm-53.088012-12.768006c0 8.736023 5.264038 13.776001 14.11206 13.776001 2.015991 0 3.919922-.335998 4.70398-.895996l13.887939-9.632019-.559936 9.52002c2.911987-.223999 5.823974-.335999 8.735961-.335999 2.800049 0 5.488038.112 8.287964.335999v-3.359986l-4.36792-.223999c-2.687988-.111999-3.135986-1.007995-3.135986-6.496033V624.76001c0-16.352051-4.704101-22.288025-17.696045-22.288025-4.815918 0-9.29602 1.231994-13.552002 3.808044l-5.936035 3.583985v7.279968l2.912109.783997 1.455933-3.471985c2.23999-5.263977 3.472046-6.048035 8.624023-6.048035 10.527955 0 14.895997 4.144043 15.231934 14.33606l-11.088013 2.015991c-15.231933 2.799988-21.615966 8.063965-21.615966 17.807983ZM1102.008057 641c0-4.143982 2.23999-8.063965 5.599975-10.192017 2.799927-1.679992 8.959961-3.247985 17.471924-4.47998V641.112c-3.247925 4.591979-10.303955 8.848022-14.671997 8.848022-4.47998 0-8.399902-4.144043-8.399902-8.960022Zm-60.031983-9.52002c0 15.119996 10.639893 25.76001 25.647949 25.76001 5.823975 0 14.223999-2.12799 15.343995-3.807983l2.35205-3.583985-1.120117-1.680053c-4.143921 2.240051-7.728027 3.248047-11.76001 3.248047-12.431884 0-20.60791-9.632019-20.60791-24.416016 0-11.984009 5.599976-18.703979 15.679932-18.703979 4.927978 0 10.304077 2.23999 12.320068 5.039978l.783936 6.83197h3.135986c0-5.151978.560059-9.743958 1.568115-13.776001-4.480102-2.687989-8.400024-3.919983-12.992065-3.919983-5.375977 0-11.648071 2.127991-18.368042 6.384033-7.839966 4.927979-11.983887 12.768005-11.983887 22.623962Zm-32.704101 23.856019c4.70404-.223999 9.29602-.335999 14-.335999 4.704101 0 9.29602.112 14 .335999v-3.359986l-5.151978-.335998c-3.807983-.223999-4.143921-1.007996-4.143921-8.064026v-40.656006l-1.008056-.447998c-5.712037 2.35199-11.536011 3.919983-17.472046 4.59198v3.136047h4.144043c4.47998 0 4.927978.783997 4.927978 8.175965v25.200012c0 7.05603-.335998 7.840027-4.143982 8.064026l-5.152038.335998Zm8.400024-66.640015c0 3.360046 2.23999 5.600037 5.599976 5.600037 3.359985 0 5.600097-2.239991 5.600097-5.600037 0-3.247986-2.240112-5.599976-5.488037-5.599976-3.472046 0-5.712036 2.239991-5.712036 5.599976Zm-52.640015 66.640015C969.624023 655.112 974.216003 655 978.807983 655c5.375977 0 10.640015.112 16.015992.335999v-3.359986L989 651.640015c-5.040039-.335999-5.264038-.671997-5.264038-8.064026v-19.263977c0-6.719971 4.480041-12.320008 9.968017-12.320008 3.359986 0 5.712037 1.567994 7.504029 5.151978h2.35199l1.007995-13.440003c-1.231994-.783996-3.247986-1.231994-5.264038-1.231994-3.359985 0-6.94397 1.792053-9.295959 4.59198l-6.272034 7.392029v-11.536011l-1.007935-.447998c-5.712036 2.35199-11.53601 3.919983-17.472046 4.59198v3.136047h4.144043c4.479981 0 4.927979.783997 4.927979 8.175965v25.200012c0 7.05603-.335999 7.840027-4.143982 8.064026l-5.152039.335998Zm-53.088012-24.864014c0 7.05603 1.567993 13.104004 4.70404 17.360046 4.367981 5.935974 11.984009 9.407959 20.383972 9.407959 4.144043 0 8.288025-.895996 12.880005-2.911987 3.024048-1.231995 5.375977-2.687988 5.823975-3.359985l2.240051-3.807984-1.455993-1.120056c-7.16803 4.256043-9.744019 5.264038-14.559998 5.264038-7.280029 0-13.328003-3.247986-16.46405-8.736023-2.127991-3.695984-2.911988-6.832031-3.135987-13.328003h16.352051c7.727966 0 12.543945-.335998 20.271973-1.567993.111999-1.567993.223999-2.575989.223999-3.919983 0-12.880005-8.288025-21.280029-20.832031-21.280029-4.143982 0-8.959961 1.455994-13.552002 4.143982-9.18396 5.264038-12.880005 12.208008-12.880005 23.856018Zm10.640014-5.711975c0-5.264038.447998-7.728028 1.904053-10.640015 2.351929-4.927978 7.167969-7.952026 12.543945-7.952026 3.696045 0 6.608033 1.456054 8.624024 4.480041 2.463989 3.695984 3.583984 6.944031 3.583984 14.447998l-12.544006.335999c-5.151978 0-8.063965-.112-14.112-.671997Zm-110.656005 30.575989C816.632019 655.112 821.447998 655 826.151978 655c4.480041 0 8.848022.112 13.328002.335999v-3.359986l-4.703979-.335998c-3.807983-.223999-4.143982-1.007996-4.143982-8.064026v-23.743958c0-5.040039 7.391968-10.528015 14.112-10.528015 6.047973 0 10.192016 5.711975 10.192016 14.223999v20.047974c0 7.05603-.336059 7.840027-4.144043 8.064026l-5.151977.335998v3.359986c4.703979-.223999 9.29602-.335999 14-.335999 4.703979 0 9.29602.112 14 .335999v-3.359986l-5.151978-.335998c-3.808044-.223999-4.144043-1.007996-4.144043-8.064026v-23.743958c0-5.040039 7.391968-10.528015 14.112-10.528015 6.048034 0 10.192016 5.711975 10.192016 14.223999v31.807984C891.559998 655.112 894.583984 655 897.495972 655c3.360046 0 6.608032.112 9.968017.335999v-3.359986l-5.263977-.335998c-3.808044-.223999-4.143982-1.007996-4.143982-8.064026v-23.071961c0-11.088012-6.496032-18.032043-16.800049-18.032043-3.919982 0-7.167968 1.007995-9.18396 2.799988l-8.512023 7.616027c-3.583985-7.392028-8.175965-10.416015-15.903992-10.416015-4.143982 0-7.280029 1.007995-9.296021 2.799988l-7.727966 7.168029v-9.520019l-1.007996-.447998c-5.712036 2.35199-11.53601 3.919983-17.472045 4.59198v3.136047h4.144043c4.47998 0 4.927978.783997 4.927978 8.175965v25.200012c0 7.05603-.335999 7.840027-4.143982 8.064026l-5.152038.335998Zm-87.247986 0C728.711975 655.112 732.856018 655 736.888 655c4.479981 0 9.072022.112 13.552002.335999v-3.359986l-4.143981-.335998c-3.920044-.335999-5.376038-1.119995-5.376038-2.911988 0-1.456054 1.567993-6.272033 3.920044-11.872009l3.135986-7.504028h32.255982l5.151977 12.880005c1.904053 4.70404 2.352051 6.159973 2.352051 7.168029 0 1.231995-1.792053 2.015992-4.592041 2.239991l-5.263977.335998v3.359986C783.031982 655.112 788.296021 655 793.447998 655c4.70398 0 9.52002.112 14.223999.335999v-3.359986l-3.807983-.335998c-2.911988-.223999-4.144043-2.352051-8.064026-11.424012l-27.104004-63.616027H765.112s-1.231995 3.807983-5.487977 13.328003l-24.752014 56.223999c-1.455993 3.248046-3.583984 5.264038-6.048034 5.488037l-4.143982.335998Zm25.200012-30.46399 14.223999-33.376037 14.111999 33.376037Zm433.104004 137.679993c5.823974 1.903992 10.192016 2.687988 15.343994 2.687988 14.671997 0 25.088013-7.839966 25.088013-18.815979 0-3.471985-.895996-6.048034-3.135987-8.288025-2.911987-2.911987-6.608032-4.143982-16.463989-6.047973-9.184082-1.791992-12.208008-4.031983-12.208008-9.184021 0-5.599976 3.920044-8.736023 10.751953-8.736023 7.504029 0 13.215943 3.920044 13.215943 9.184021v2.575989h3.136108c.111939-6.495972.223999-9.18396.559937-12.656006-5.936035-2.015992-9.968018-2.799988-14.559937-2.799988-12.992065 0-20.94397 6.160034-20.94397 16.23999 0 5.376038 2.463868 9.184021 7.615967 11.536011 3.023926 1.343994 8.959961 3.135986 16.575928 4.81604 5.040039 1.119995 7.167969 3.471985 7.167969 7.727966 0 6.048035-5.599854 10.304016-13.552002 10.304016-8.175904 0-14-3.919983-14-9.520019v-4.59198h-3.359864c0 7.727966-.336059 11.088012-1.232055 15.567993Zm-45.248047.783997c4.592041-.223999 9.184082-.335999 13.776001-.335999 5.375976 0 10.640015.112 16.016113.335999v-3.359986l-5.824097-.335998c-5.039916-.335999-5.264038-.671997-5.264038-8.064026v-19.263977c0-6.720032 4.480103-12.320008 9.968018-12.320008 3.360107 0 5.712036 1.567994 7.504028 5.151978h2.352051l1.007935-13.440003c-1.231934-.783996-3.248047-1.231994-5.263916-1.231994-3.360108 0-6.944092 1.791992-9.296021 4.592041l-6.272095 7.391968v-11.536011l-1.007934-.447998c-5.712036 2.35199-11.536011 3.919983-17.472046 4.592041v3.135986h4.144043c4.47998 0 4.927978.783997 4.927978 8.175965v25.200012c0 7.05603-.335937 7.840027-4.144043 8.064026l-5.151977.335998Zm-53.088013-24.864014c0 7.05603 1.568115 13.104004 4.704102 17.360046 4.36792 5.935974 11.983887 9.407959 20.383911 9.407959 4.144043 0 8.287964-.895996 12.880005-2.911987 3.024048-1.231995 5.375976-2.687988 5.823974-3.359985l2.239991-3.808045-1.455933-1.119995c-7.167969 4.256043-9.744019 5.264038-14.559936 5.264038-7.28003 0-13.328125-3.247986-16.464112-8.736023-2.12793-3.695984-2.911987-6.83197-3.135986-13.328003h16.352051c7.728027 0 12.543945-.335998 20.271972-1.567993.112061-1.567993.223999-2.575989.223999-3.919983 0-12.880005-8.287964-21.280029-20.832031-21.280029-4.143921 0-8.959961 1.455994-13.55188 4.143982-9.184082 5.264038-12.880127 12.208008-12.880127 23.856018Zm10.640015-5.711975c0-5.264038.447998-7.728028 1.904053-10.640015 2.351928-4.927978 7.167968-7.952026 12.543945-7.952026 3.696045 0 6.608032 1.456054 8.624023 4.480041 2.46399 3.695984 3.583985 6.94397 3.583985 14.447998l-12.543946.335999c-5.151977 0-8.064086-.112-14.11206-.671997Zm-60.36792 6.71997c0 15.119996 10.640015 25.76001 25.647949 25.76001 5.823975 0 14.223999-2.12799 15.343994-3.807983l2.352051-3.583985-1.119995-1.680053c-4.144043 2.240051-7.728027 3.248047-11.76001 3.248047-12.432007 0-20.608032-9.632019-20.608032-24.416016 0-11.984009 5.599976-18.703979 15.680054-18.703979 4.927978 0 10.303955 2.23999 12.319946 5.039978l.784058 6.83197h3.135986c0-5.151978.559936-9.743958 1.567993-13.776001-4.480102-2.687989-8.400024-3.919983-12.992065-3.919983-5.375977 0-11.64795 2.127991-18.36792 6.384033-7.840088 4.927979-11.984009 12.768005-11.984009 22.623962Zm-68.432007-21.279968h4.143982c4.479981 0 4.927979.783997 4.927979 8.175965v18.81604c0 7.839965.671997 11.312011 2.687988 14.111999 2.46405 3.359985 6.720032 5.039978 13.104004 5.039978 5.039978 0 9.520019-1.567993 12.544006-4.367981l7.504028-6.944031c0 3.248047-.11206 5.040039-.447998 10.304017C1014.088013 763.112 1017.112 763 1020.247986 763c3.136047 0 6.159973.112 9.295959.335999v-3.359986l-4.591919-.335998c-3.807983-.223999-4.144043-.895996-4.144043-8.064026v-40.656006l-1.007995-.447998c-5.711975 2.35199-11.53595 3.919983-17.471985 4.592041v3.135986h4.143982c4.480041 0 4.928039.783997 4.928039 8.175965v18.256042c0 2.463989-1.567993 5.599976-4.144043 8.175964-3.135986 3.135987-6.71997 4.704041-11.088012 4.704041-3.919983 0-7.055969-1.231995-8.847962-3.360046-1.567993-1.791993-2.351989-5.263978-2.351989-10.191956v-33.040039l-1.008057-.447998c-5.711975 2.35199-11.53595 3.919983-17.471924 4.592041Zm-66.528015 20.607971c0 8.960022 3.023987 16.35199 8.511963 20.832032 3.808044 3.247985 9.072021 4.703979 16.35199 4.703979 2.23999 0 4.81604-.447998 5.376037-.895996l12.432007-10.416016-.559998 10.304017C944.984009 763.112 947.783997 763 950.695984 763c3.360046 0 6.832031.112 10.192016.335999v-3.359986l-5.152038-.335998c-3.807983-.223999-4.143982-1.007996-4.143982-8.064026v-68.992005l-1.007996-.895996c-4.927978 1.903992-8.623962 2.799988-17.471984 4.144043v3.135987h6.272033c2.015991 0 2.799988 1.231994 2.799988 4.59198v20.496032c-6.272034-2.688049-9.40802-3.584045-13.328003-3.584045-3.023987 0-5.712036.671997-8.512024 2.127991l-9.855957 5.152038c-6.384033 3.359986-10.528015 11.536011-10.528015 21.055969Zm9.743957-3.695983c0-12.208008 6.048035-19.375977 16.128052-19.375977 4.255982 0 8.735962 1.455994 12.656006 4.143982 2.351929 1.567993 3.695984 3.023987 3.695984 3.919983v14.447998c0 7.280029-.223999 8.400024-1.679993 10.976013-3.136047 5.263977-8.624023 8.736023-13.888061 8.736023-9.855957 0-16.911988-9.52002-16.911988-22.848022Zm-71.231994 3.583984c0 15.791992 9.968017 26.544006 24.416015 26.544006 17.247986 0 29.567994-11.984009 29.567994-28.783996 0-15.119995-10.976014-25.984009-26.320008-25.984009-16.351989 0-27.664001 11.536011-27.664001 28.223999ZM848.888 734.888c0-13.440002 5.376038-20.720031 15.231995-20.720031 10.304016 0 17.919983 11.200012 17.919983 26.432007 0 12.880004-5.711975 20.94403-14.783997 20.94403-10.975952 0-18.367981-10.752014-18.367981-26.656006ZM793 763.335999C797.59198 763.112 802.184021 763 806.776001 763c5.375977 0 10.640015.112 16.015991.335999v-3.359986l-5.823974-.335998c-5.040039-.335999-5.264039-.671997-5.264039-8.064026v-19.263977c0-6.720032 4.480042-12.320008 9.968018-12.320008 3.359985 0 5.712036 1.567994 7.504028 5.151978h2.35199l1.007996-13.440003c-1.231995-.783996-3.247986-1.231994-5.264038-1.231994-3.359986 0-6.94397 1.791992-9.29596 4.592041l-6.272034 7.391968v-11.536011l-1.007995-.447998c-5.711975 2.35199-11.53595 3.919983-17.471985 4.592041v3.135986h4.143982c4.480041 0 4.92804.783997 4.92804 8.175965v25.200012c0 7.05603-.335999 7.840027-4.144043 8.064026L793 759.976013Zm-67.536011 0C730.952026 763.112 736.328003 763 741.815979 763c5.488037 0 10.976013.112 16.46405.335999v-3.359986l-5.376037-.335998c-5.151978-.335999-5.711975-1.231995-5.711975-10.080017v-58.46399c3.919983-.895996 7.167968-1.343994 10.975952-1.343994 12.096008 0 18.592041 5.599976 18.592041 16.23999 0 10.080017-6.832031 17.135987-16.575989 17.135987-2.35199 0-4.032043-.223999-6.944031-1.119995l1.119995 4.031982c2.687989.559998 4.256043.671997 6.496033.671997 15.343994 0 27.104004-10.415954 27.104004-23.855957 0-10.752014-8.736023-17.360046-22.960022-17.360046-6.383972 0-12.656006.336059-19.039978.336059-6.832031 0-13.552002-.11206-20.384033-.336059v3.360046l5.040039.335999c5.039978.335998 5.935974 1.791992 5.935974 10.079956v50.288025c0 8.848022-.559998 9.744018-5.711975 10.080017l-5.376038.335998Zm1032.151978 0c4.592041-.223999 9.29602-.335999 13.888061-.335999 4.591919 0 9.296021.112 13.888062.335999v-3.359986l-5.040039-.335998c-3.808106-.223999-4.144043-1.007996-4.144043-8.064026v-23.743958c0-5.040039 7.391968-10.528015 14.223999-10.528015 7.504028 0 12.432007 5.599976 12.432007 14.223999v31.807984c2.911987-.223999 5.936035-.335999 8.8479-.335999 3.136108 0 6.160156.112 9.296143.335999v-3.359986l-4.592041-.335998c-3.808106-.223999-4.144043-.895996-4.144043-8.064026v-21.615967c0-13.104004-6.159912-19.488037-18.70398-19.488037-4.143921 0-6.495972.783996-8.848022 2.799988l-8.511963 7.392028v-9.744018l-1.008057-.447998c-5.711914 2.35199-11.535888 3.919983-17.471924 4.592041v3.135986h4.144043c4.479981 0 4.927979.783997 4.927979 8.175965v25.200012c0 7.05603-.33606 7.840027-4.144043 8.064026l-5.040039.335998Zm-58.23999-24.640015c0 15.791992 9.968017 26.544006 24.416015 26.544006 17.248047 0 29.567993-11.984009 29.567993-28.783996 0-15.119995-10.975952-25.984009-26.319946-25.984009-16.352051 0-27.664062 11.536011-27.664062 28.223999Zm10.416015-3.807984c0-13.440002 5.375977-20.720031 15.231934-20.720031 10.304077 0 17.920044 11.200012 17.920044 26.432007 0 12.880004-5.712036 20.94403-14.783936 20.94403-10.976074 0-18.368042-10.752014-18.368042-26.656006ZM1666 763.335999c4.703979-.223999 9.296021-.335999 14-.335999s9.296021.112 14 .335999v-3.359986l-5.151978-.335998c-3.807983-.223999-4.144043-1.007996-4.144043-8.064026v-40.656006l-1.007934-.447998c-5.712036 2.35199-11.536011 3.919983-17.472046 4.592041v3.135986h4.144043c4.47998 0 4.927979.783997 4.927979 8.175965v25.200012c0 7.05603-.33606 7.840027-4.144043 8.064026L1666 759.976013Zm8.400024-66.640015c0 3.360046 2.239991 5.600037 5.599976 5.600037s5.599976-2.239991 5.599976-5.600037c0-3.247986-2.239991-5.599976-5.487915-5.599976-3.472046 0-5.712037 2.239991-5.712037 5.599976Zm-44.800048 23.968017 8.512085-.447998v32.255982c0 8.288025 3.695922 11.872009 12.319946 11.872009 2.57605 0 5.264038-.559997 5.936035-1.343994l5.375977-5.935974-1.456055-1.904053c-2.799927 1.568054-4.479981 2.128052-6.608032 2.128052-4.36792 0-6.159912-2.240051-6.159912-7.728027v-29.343995h14.335937l1.008057-6.048034-15.343994.671997v-4.255982c0-4.703979.335937-8.735962 1.231933-15.903991l-1.343994-1.231995c-2.687988 1.679993-6.047974 3.135986-9.52002 4.255981.33606 3.360047.447999 5.488038.447999 8.848023v7.839966l-8.735962 3.920044Zm-54.880005 29.903992c0 8.736023 5.264038 13.776001 14.11206 13.776001 2.015991 0 3.919922-.335998 4.70398-.895996l13.888061-9.632019-.560058 9.52002c2.911987-.223999 5.823974-.335999 8.735962-.335999 2.800048 0 5.488037.112 8.287963.335999v-3.359986l-4.367919-.223999c-2.687989-.111999-3.135987-1.007995-3.135987-6.496033V732.76001c0-16.35199-4.704101-22.288025-17.696045-22.288025-4.815918 0-9.29602 1.231994-13.552002 3.808044l-5.936035 3.583985v7.279968l2.91211.783997 1.455932-3.471985c2.23999-5.263977 3.472046-6.047974 8.624024-6.047974 10.527954 0 14.895996 4.143982 15.232055 14.335999l-11.088134 2.015991c-15.231934 2.799988-21.615967 8.063965-21.615967 17.807983ZM1584.352051 749c0-4.143982 2.23999-8.064026 5.599975-10.192017 2.799927-1.679992 8.959961-3.247985 17.472046-4.47998V749.112c-3.248047 4.591979-10.304077 8.848022-14.672119 8.848022-4.47998 0-8.399902-4.144043-8.399902-8.960022Zm-43.008057 14.335999c4.70398-.223999 9.296021-.335999 14-.335999 4.70398 0 9.296021.112 14 .335999v-3.359986l-5.151977-.335998c-3.807984-.223999-4.144043-1.007996-4.144043-8.064026v-40.656006l-1.007935-.447998c-5.712036 2.35199-11.536011 3.919983-17.472046 4.592041v3.135986h4.144043c4.479981 0 4.927979.783997 4.927979 8.175965v25.200012c0 7.05603-.33606 7.840027-4.144043 8.064026l-5.151978.335998Zm8.400025-66.640015c0 3.360046 2.23999 5.600037 5.599975 5.600037 3.359985 0 5.599976-2.239991 5.599976-5.600037 0-3.247986-2.239991-5.599976-5.487915-5.599976-3.472046 0-5.712036 2.239991-5.712036 5.599976Zm-57.567994 42.783996c0 15.119996 10.640015 25.76001 25.64795 25.76001 5.823974 0 14.223999-2.12799 15.343994-3.807983l2.352051-3.583985-1.119996-1.680053c-4.144043 2.240051-7.728027 3.248047-11.760009 3.248047-12.432007 0-20.608033-9.632019-20.608033-24.416016 0-11.984009 5.599976-18.703979 15.680054-18.703979 4.927979 0 10.303955 2.23999 12.319946 5.039978l.784058 6.83197h3.135986c0-5.151978.559937-9.743958 1.567994-13.776001-4.479981-2.687989-8.400025-3.919983-12.991944-3.919983-5.376098 0-11.648071 2.127991-18.368042 6.384033-7.839966 4.927979-11.984009 12.768005-11.984009 22.623962Zm-60.47998-.783996c0 15.791992 9.968018 26.544006 24.416016 26.544006 17.247924 0 29.567871-11.984009 29.567871-28.783996 0-15.119995-10.975953-25.984009-26.319947-25.984009-16.351928 0-27.66394 11.536011-27.66394 28.223999Zm10.416016-3.807984c0-13.440002 5.375976-20.720031 15.231933-20.720031 10.303955 0 17.920044 11.200012 17.920044 26.432007 0 12.880004-5.712036 20.94403-14.784058 20.94403-10.975952 0-18.367919-10.752014-18.367919-26.656006Zm-58.128052 27.664002c5.823974 1.903992 10.192016 2.687988 15.343994 2.687988 14.671997 0 25.088013-7.839966 25.088013-18.815979 0-3.471985-.895996-6.048034-3.135987-8.288025-2.911987-2.911987-6.608032-4.143982-16.463989-6.047973-9.184082-1.791992-12.208008-4.031983-12.208008-9.184021 0-5.599976 3.919922-8.736023 10.751953-8.736023 7.504029 0 13.216065 3.920044 13.216065 9.184021v2.575989h3.135986c.111939-6.495972.223999-9.18396.559937-12.656006-5.936035-2.015992-9.968018-2.799988-14.559937-2.799988-12.992065 0-20.94397 6.160034-20.94397 16.23999 0 5.376038 2.463868 9.184021 7.615967 11.536011 3.023926 1.343994 8.959961 3.135986 16.575928 4.81604 5.040039 1.119995 7.168091 3.471985 7.168091 7.727966 0 6.048035-5.600098 10.304016-13.552002 10.304016-8.176026 0-14-3.919983-14-9.520019v-4.59198h-3.359986c0 7.727966-.336059 11.088012-1.232055 15.567993Zm-47.488037 0c5.823974 1.903992 10.192016 2.687988 15.343994 2.687988 14.671997 0 25.088013-7.839966 25.088013-18.815979 0-3.471985-.895997-6.048034-3.135987-8.288025-2.911987-2.911987-6.608032-4.143982-16.463989-6.047973-9.18396-1.791992-12.208008-4.031983-12.208008-9.184021 0-5.599976 3.920044-8.736023 10.751953-8.736023 7.504029 0 13.216065 3.920044 13.216065 9.184021v2.575989h3.135986c.111939-6.495972.223999-9.18396.559937-12.656006-5.935914-2.015992-9.967896-2.799988-14.559937-2.799988-12.991943 0-20.94397 6.160034-20.94397 16.23999 0 5.376038 2.46399 9.184021 7.615967 11.536011 3.024048 1.343994 8.959961 3.135986 16.57605 4.81604 5.039917 1.119995 7.167969 3.471985 7.167969 7.727966 0 6.048035-5.599976 10.304016-13.552002 10.304016-8.176026 0-14-3.919983-14-9.520019v-4.59198h-3.359986c0 7.727966-.336059 11.088012-1.232055 15.567993Zm-88.815918.783997c4.031982-.223999 8.175903-.335999 12.207885-.335999 4.480103 0 9.072022.112 13.552002.335999v-3.359986l-4.14392-.335998c-3.920044-.335999-5.375977-1.119995-5.375977-2.911988 0-1.456054 1.567993-6.272033 3.919922-11.872009l3.135986-7.504028h32.256104l5.151977 12.880005c1.903931 4.703979 2.351929 6.159973 2.351929 7.168029 0 1.231995-1.791992 2.015992-4.591919 2.239991l-5.264038.335998v3.359986C1306.031982 763.112 1311.296021 763 1316.447998 763c4.70398 0 9.52002.112 14.223999.335999v-3.359986l-3.807983-.335998c-2.911988-.223999-4.144043-2.35199-8.063965-11.424012l-27.104004-63.616027h-3.583984s-1.232056 3.808044-5.488038 13.328003l-24.752075 56.223999c-1.455932 3.248046-3.583984 5.264038-6.047973 5.488037l-4.143921.335998Zm25.199951-30.46399 14.223999-33.376037 14.111938 33.376037Zm261.416016-201.636047C1554.484009 530.411987 1574.26001 530 1594.447998 530c20.187988 0 40.375977.411987 60.563965 1.235962v-12.359985l-19.775879-1.235962c-18.952148-1.236023-21.012085-4.531983-21.012085-37.080017V265.496002c14.420044-3.29599 26.368042-4.944 40.375977-4.944 44.495971 0 68.391967 20.600006 68.391967 59.73999 0 37.080017-25.131958 63.036011-60.975952 63.036011-8.651977 0-14.831909-.824005-25.544067-4.119995l4.120117 14.83197c9.887939 2.060028 15.656006 2.472015 23.895996 2.472015 56.44397 0 99.70398-38.315979 99.70398-87.755981 0-39.552002-32.135987-63.860016-84.460083-63.860016-23.483887 0-46.555909 1.235962-70.039917 1.235962-25.131958 0-49.851929-.411987-74.984009-1.235962v12.360016l18.540039 1.235992c18.540039 1.235993 21.835937 6.592011 21.835937 37.079987v184.988007c0 32.548034-2.060058 35.843994-21.011963 37.080017l-19.776 1.235962Zm-248.848023 0C1305.635986 530.411987 1325.411987 530 1345.599976 530c20.18811 0 40.376098.411987 60.564087 1.235962v-12.359985l-19.776124-1.235962c-18.951904-1.236023-21.011962-4.531983-21.011962-37.080017V265.496002c14.420044-3.29599 26.368042-4.944 40.375976-4.944 44.496094 0 68.39209 20.600006 68.39209 59.73999 0 37.080017-25.13208 63.036011-60.976074 63.036011-8.651978 0-14.832031-.824005-25.543946-4.119995l4.119996 14.83197c9.888061 2.060028 15.656005 2.472015 23.895996 2.472015 56.443969 0 99.703979-38.315979 99.703979-87.755981 0-39.552002-32.135986-63.860016-84.459961-63.860016-23.484009 0-46.55603 1.235962-70.040039 1.235962-25.13208 0-49.852051-.411987-74.984009-1.235962v12.360016l18.540039 1.235992c18.539917 1.235993 21.83606 6.592011 21.83606 37.079987v184.988007c0 32.548034-2.060059 35.843994-21.012085 37.080017l-19.776001 1.235962Zm-248.848022 0C1056.787964 530.411987 1076.563965 530 1096.751953 530c20.187988 0 40.375977.411987 60.564087 1.235962v-12.359985l-19.776001-1.235962c-18.952026-1.236023-21.011963-4.531983-21.011963-37.080017V265.496002c14.419922-3.29599 26.36792-4.944 40.375977-4.944 44.495971 0 68.391968 20.600006 68.391968 59.73999 0 37.080017-25.131958 63.036011-60.975953 63.036011-8.652099 0-14.832031-.824005-25.544067-4.119995l4.119995 14.83197c9.88794 2.060028 15.656006 2.472015 23.895996 2.472015 56.444092 0 99.70398-38.315979 99.70398-87.755981 0-39.552002-32.135987-63.860016-84.459961-63.860016-23.484009 0-46.556031 1.235962-70.040039 1.235962-25.131958 0-49.851929-.411987-74.984009-1.235962v12.360016l18.540039 1.235992c18.540039 1.235993 21.835937 6.592011 21.835937 37.079987v184.988007c0 32.548034-2.059936 35.843994-21.011962 37.080017l-19.776001 1.235962Zm-323.419983 0C728.012024 530.411987 743.255981 530 758.088013 530c16.47998 0 33.372009.411987 49.851989 1.235962v-12.359985l-15.244018-1.235962c-14.419983-1.236023-19.776001-4.119995-19.776001-10.712036 0-5.355958 5.768005-23.071961 14.419983-43.671998l11.536011-27.604003h118.656005l18.952027 47.380004c7.004028 17.304017 8.651977 22.660035 8.651977 26.368012 0 4.532013-6.59198 7.415985-16.891967 8.240021l-19.364014 1.235962v12.359985C927.832031 530.411987 947.195984 530 966.14801 530c17.304016 0 35.019959.411987 52.323975 1.235962v-12.359985l-14.007996-1.235962c-10.711975-.824036-15.244018-8.652008-29.664001-42.024018l-99.70398-234.016021h-13.184021s-4.531982 14.008026-20.187988 49.028015l-91.052002 206.824005c-5.356018 11.947998-13.184021 19.363983-22.247986 20.188019l-15.244018 1.235962Zm92.700012-112.063965 52.323974-122.776001 51.911988 122.776001Zm937.300049 111.063965C1758.011963 529.411987 1773.255981 529 1788.088013 529c16.47998 0 33.371948.411987 49.851928 1.235962v-12.359985l-15.243896-1.235962c-14.420044-1.236023-19.776001-4.119995-19.776001-10.712036 0-5.355958 5.767944-23.071961 14.419922-43.671998l11.536011-27.604003h118.656005l18.952027 47.380004c7.004028 17.304017 8.651977 22.660035 8.651977 26.368012 0 4.532013-6.592041 7.415985-16.891967 8.240021l-19.364014 1.235962v12.359985c18.952026-.823975 38.31604-1.235962 57.267944-1.235962 17.304077 0 35.02002.411987 52.323975 1.235962v-12.359985l-14.007935-1.235962c-10.712036-.824036-15.244018-8.652008-29.66394-42.024018l-99.704102-234.016021h-13.18396s-4.531982 14.008026-20.187988 49.028015l-91.052002 206.824005c-5.355957 11.947998-13.18396 19.363983-22.248047 20.188019l-15.243896 1.235962Zm92.699951-112.063965 52.323974-122.776001 51.911988 122.776001Z"/>
</svg>

