<svg xmlns="http://www.w3.org/2000/svg" viewBox="0 0 1024 800">
  <path class="black" d="m75.431755 672.826172-32.718262-40.138855c-4.047619-4.722229-7.420635-10.11908-10.793653-15.85315h-.337296v55.992005H10.669843V596.93335c0-3.373047-1.349205-6.071473-4.722222-6.071473-3.373016 0-2.023811 0-2.698413.674622l-1.011905-.674622c0-9.444397 7.420634-14.503906 17.539686-14.503906 10.119047 0 16.190475 4.384888 21.924602 11.805542l20.912697 26.309509c5.059525 6.071412 9.444451 12.817444 12.817467 20.238099h.337296v-57.003968h20.912696v95.45636H75.769051Zm81.289681 2.698425c-31.706345 0-49.920639-22.599182-49.920639-52.95636 0-30.357116 22.936508-47.559509 51.607147-47.559509 28.670639 0 50.932541 15.178589 50.932541 46.210327 0 31.031799-20.912705 54.305542-52.619049 54.305542Zm1.349212-84.66272c-18.214294 0-22.599212 17.539734-22.599212 32.380982 0 14.841247 4.384918 36.091247 22.936508 36.091247s22.599212-22.26184 22.599212-36.428588c0-14.166626-5.39682-32.380921-22.599212-32.380921Zm130.198425 82.976258c-22.261932 0-33.055572-19.900818-38.115097-40.813538h-6.071441v39.464295h-27.658722v-94.781739c12.480148-.67456 24.623031-1.011902 37.10318-1.011902 18.214279 0 40.813492 4.047608 40.813492 26.30951 0 12.142883-8.769837 21.58728-19.226197 25.634948 4.047638 8.095215 18.214295 31.70636 28.333344 31.70636s2.698395 0 3.710327-.674621l.674591.674621c-1.011902 9.781678-10.119049 12.817444-19.563477 12.817444Zm-37.777801-82.301636c-2.023804 0-4.047607 0-6.408737.674622v26.98413c2.023834 0 4.047638.337281 6.408737.337281 9.107147 0 15.515869-4.384888 15.515869-14.166687 0-9.781739-6.408722-13.829346-15.515869-13.829346Zm114.345245 3.710327h-14.841278v77.579346h-27.996002v-77.579346h-25.297638v-17.877014h59.027802c9.107116 0 20.238098-.674561 22.936493-1.011841l.674621 1.011841c0 12.817505-5.734161 17.877014-14.841278 17.877014Zm84.325409 77.579346v-41.825379h-33.730163v41.825379h-27.658722v-95.45636h27.658722v35.753967h33.730163v-35.753967h27.658722v95.45636h-27.658722Zm103.551575-77.579346v23.273804h11.468262c9.107177 0 20.238098-.674622 22.936523-1.011902l.674622 1.011902c0 12.817444-5.734192 17.202392-14.841309 17.202392h-20.575378v37.10315h-27.658753v-95.45636h63.75v17.877014h-36.091247Zm90.059509 80.277771c-31.706299 0-49.920593-22.599182-49.920593-52.95636 0-30.357116 22.936462-47.559509 51.607117-47.559509 28.670654 0 50.932556 15.178589 50.932556 46.210327 0 31.031799-20.912659 54.305542-52.61908 54.305542Zm1.686524-84.66272c-18.214295 0-22.599182 17.539734-22.599182 32.380982 0 14.841247 4.384887 36.091247 22.936523 36.091247 18.551575 0 22.599182-22.26184 22.599182-36.428588 0-14.166626-5.396789-32.380921-22.599182-32.380921Zm81.289673 83.98816c-11.805542 0-25.972168-2.361145-25.972168-17.877015v-2.698425l1.011901-.674621c4.722229 3.035705 12.142823 5.05957 19.226197 5.05957 10.79364 0 16.19049-4.722229 16.19049-10.79364 0-6.071472-3.373046-7.757996-14.166748-13.154785-12.480102-6.408753-21.58728-13.154786-21.58728-27.996033 0-14.841309 11.805542-30.694458 40.476196-30.694458 28.670655 0 13.492066.674621 19.563538 1.349182l-2.698425 18.214294c-4.722229-1.686462-11.130982-3.035705-16.865113-3.035705-9.781738 0-13.154724 4.384949-13.154724 8.769836 0 4.384949 6.071411 9.781739 15.515808 14.166687 11.805603 5.734131 21.587342 13.492066 21.587342 27.658692 0 14.166748-8.432495 31.706421-38.789673 31.706421Zm109.285705-79.603211h-14.841247v77.579346h-27.996033v-77.579346h-25.297608v-17.877014h59.027832c9.107056 0 20.238099-.674561 22.936463-1.011841l.674621 1.011841c0 12.817505-5.73413 17.877014-14.841308 17.877014Zm46.884949 0v21.587341h10.119018c9.107178 0 20.238099-.674621 22.936585-1.011901l.67456 1.011901c0 12.817444-5.734069 17.202332-14.841308 17.202332h-19.226074v20.238098h15.515747c9.107177 0 20.238098-.674621 22.936584-1.011902l.674561 1.011902c0 12.817444-5.73407 18.551575-14.841248 18.551575h-52.281738v-95.45636h62.400757v17.877014h-34.404663Zm117.380981 78.591309c-22.261902 0-33.055603-19.900818-38.115112-40.813538h-6.071411v39.464295h-27.658753v-94.781739c12.480164-.67456 24.623047-1.011902 37.10315-1.011902 18.214355 0 40.813537 4.047608 40.813537 26.30951 0 12.142883-8.769897 21.58728-19.226135 25.634948 4.047547 8.095215 18.214234 31.70636 28.333313 31.70636 10.11908 0 2.698364 0 3.710327-.674621l.674561.674621c-1.011902 9.781678-10.11908 12.817444-19.563477 12.817444Zm-37.777832-82.301636c-2.023803 0-4.047546 0-6.408691.674622v26.98413c2.023865 0 4.047668.337281 6.408691.337281 9.107178 0 15.51593-4.384888 15.51593-14.166687 0-9.781739-6.408752-13.829346-15.51593-13.829346Z"/>
  <path class="black" d="M647.157959 268.401611c.337341-.674621 1.011902-1.686523 1.349243-2.361145 1.349182-2.361145 2.698364-4.722229 2.023743-7.083313 0-1.686523-1.686463-3.373047-3.372986-3.710327-1.011902 0-1.686523-1.349243-1.686523-2.361145 0-2.361084 0-4.722168-1.349183-6.746033-1.011901-1.349182-2.361084-2.361084-3.035766-4.047607-.674561-1.011902-1.011841-2.023804-.674561-3.035706 0-.674621 0-1.686462-.674621-2.023803-.674561-.674622-1.011902-1.686524-1.349182-3.035706 0-.674621-.337281-1.349243-1.011902-1.686523-.674561-.337281-1.349243-.337281-2.023804 0-.674622-2.023804-.674622-4.384888-.674622-6.746033 0-1.686462-1.349182-2.698425-3.035705-2.361145-1.686463.674683-3.035706-.674561-3.035706-2.361084v-2.361084c.337281-1.686523-1.011963-2.698425-2.698425-2.361084-1.686523.337219-3.035706-.674622-3.035706-2.361145v-3.035706c.337342-1.686523-1.011901-2.698425-2.698425-2.361145-1.686523.674622-3.373047.674622-5.059509 1.349183-1.349182.337341-2.698425-.674561-2.698425-2.023743v-4.047608c0-1.686523-1.686524-2.698425-3.373047-2.023864-.337281 0-1.011841.674621-1.349182.674621-1.349183.674561-3.035706 0-3.372986-1.686523 0-1.686524-.674622-3.035706-.674622-4.722168 0-1.686524-2.023804-2.361145-3.372986-1.349243l-1.349243 1.011902c-1.349182 1.011901-3.035705 0-3.373047-1.349183 0-1.011901-.67456-2.361084-.67456-3.373046-.337281-1.686463-2.698426-2.361084-3.710327-1.011902-.337281.337341-.674622 1.011902-1.011902 1.349182-1.011902 1.349243-3.372986 1.011902-3.710327-.674561-.337281-1.349182-1.011902-2.698425-1.686524-4.047607-1.349182 3.372986-2.698425 7.083313-3.710266 10.45636-.674622-2.023865-1.349243-3.710327-2.023865-5.734192-2.023803 4.384949-3.372986 9.107178-3.710327 13.829407l-2.698364-4.047608c0 4.047608 0 8.432556.33728 12.480164-1.686523 3.372986-3.372986 7.420593-5.396789 12.142822 0 0-3.035767 7.420654-4.384949 18.214294-2.698425 20.912659-18.888916 38.115113-40.138916 39.801575-6.408692.674622-13.492066 0-21.249939-1.349243-29.345307-6.07135-41.82544-34.742004-46.884979-49.920593-5.39679-16.865052-16.527741-31.70636-32.043641-40.138916-3.710296-2.023743-7.757934-4.047608-12.480133-5.39679 3.373017-5.734131 1.011902-14.166687 1.011902-14.166687 0-1.686523 0-3.373047-1.349243-5.396789-2.023773-4.047608-5.7341-2.698426-8.432526-1.011902-2.023773 1.349182-4.384887 2.023803-6.746032 1.349182-4.384918-1.349182-9.107147 1.686462-9.107147 1.686462-9.444428 1.011963-10.45633 10.793701-10.45633 10.793701-10.79364 7.420655-4.722229 14.166687-4.722229 14.166687-9.444427 2.698426-13.492065 10.456299-14.503967 13.492066 0 .33728 0 1.011902.674591.67456 15.85321-5.059509 19.226227-1.011901 19.226227-1.011901-8.432556 26.30957 15.515869 24.623046 15.515869 24.623046s-27.658753 60.376954-3.035736 112.658692c2.698425 5.39685 4.384949 11.130981 5.734131 16.865082 3.373016 15.178589 15.178558 46.210357 55.317474 66.785736 6.408722 3.373016 12.480164 7.420624 17.876953 12.142883 4.047669 3.373016 9.781769 7.757935 16.527802 11.130951-3.373017 6.071381-6.071442 12.817413-9.107117 18.888855-2.023834 4.384949-4.384949 12.142883-7.757965 15.178589-3.710327 3.373016-13.829376-1.011933-18.214295-2.023773-5.73413-1.011933-9.781738-.674652-15.515869.674591 3.035706.674591 32.043671 7.420623 31.70633 9.107116 0 1.011933-11.805542 1.011933-12.817444 1.349183-6.071411.674652-10.793671 2.361145-14.503937 7.420684 9.107117-1.011902 18.214264-2.361145 27.321381-3.035736 3.710357 0 7.757965 0 11.130981-1.349182 2.023834-.674621 3.373016-1.686523 5.396851-1.686523 2.023773 0 4.722198 1.686523 6.408691 2.023773-1.011902 3.035766-2.361084 5.734161-4.047607 7.420685-4.047608 4.384887-16.865082.33728-22.261933 0-7.083282-.674652-12.142822 0-18.551574 2.698364 4.047607.674652 39.464264 5.396881 39.127014 7.420685 0 1.349182-13.829407 2.698364-15.5159 3.035705-7.420624 1.686463-12.480163 4.047608-16.527771 10.79364 10.79364-2.361084 21.58728-4.722229 32.380921-6.746032 4.384948-.674622 9.107208-1.011902 13.492065-2.698426 2.361176-1.01184 3.710358-2.361084 6.408783-2.698364 2.361084 0 5.7341 1.349182 8.095215 1.686524.337311 0 7.757965.33728 7.420624 0-7.420624-6.408814-15.515839-13.154816-14.503937-23.948456 3.710296 2.361084 9.781708 2.023804 14.166656 3.035675-2.361084-2.023773-4.722229-4.047608-7.083343-6.408692-3.710297-3.373016-5.39679-3.710357-4.047608-9.107147 1.686493-7.757934 6.071442-15.515899 9.781708-22.599182 7.757935 0 15.853211-1.011932 24.623047-4.384949 31.70636-11.805542 45.873047-37.44049 51.607117-52.956329 3.373047-8.769867 7.757995-16.865082 13.492065-24.285767 2.023865-2.698364 4.384949-5.7341 6.746033-9.107116 3.710388-.674591 7.420654-2.023804 11.130981-3.373017-1.349243-1.011932-2.698425-1.686523-3.710327-2.698425 4.047608 0 7.757935-1.011871 11.468262-2.361114-1.349243-.337281-3.035706-1.011902-4.384888-1.349183 3.035645 0 6.071411-2.023834 7.757935-4.384918-1.686524 0-3.373047-.674591-4.72229-.674591 3.035766-2.698425 5.734131-5.39685 8.769897-8.095276-.674621-.674591-1.686523-1.011871-2.361084-1.349182-1.349243-.337341-2.023865-2.361114-.674682-3.710357 1.349243-1.349183 2.361145-2.698365 3.035766-4.384858.674561-1.349243 0-3.035766-1.686523-3.373016-1.011902 0-2.361084 0-3.372986-.337341v-.674591c1.686462-1.349244 3.372986-2.698426 5.059509-4.384919-.674621-.674591-1.686523-1.011932-2.698425-1.349182 2.361084-2.023834 4.047607-4.722259 4.722168-7.757965-.674561 0-1.349182-.674591-2.361084-.674591 0-.674652.337341-1.349243.674621-2.023834.674622-.337311 1.349244-1.011902 2.023804-1.349182 1.349182-.674652 2.698425-1.686493 2.698425-3.373017 0-.674652 0-1.349243-.337341-2.023834-.67456-1.011902-.67456-2.023834 0-3.035675 3.035767-4.047668 3.710388-9.444458 1.686524-14.166717v-1.349183c1.011901-3.710327 2.023864-7.757934 3.035766-11.468261 0-1.011902.674561-2.023804 0-3.035706-.337341-1.011963-2.023865-1.349182-2.361145-.33728 1.686463-2.698425 3.372986-5.396851 4.722229-8.095276H647.4953ZM483.566681 478.203186c2.698425 2.023834 6.746033 2.361084 10.119049 3.035675-.674591 2.023834-1.349182 3.710358-2.023773 5.396851-.674652 2.023834-1.686524 4.722198-2.361176 7.420623-3.710266-4.384918-6.746032-9.781707-5.7341-16.19049Zm10.45636 2.023834c-1.349243-1.349243-2.698426-3.035766-4.047608-4.384948-3.035736-3.373017-4.047668-3.710328-2.698425-7.757935 1.349182-4.047607 3.710297-8.432556 6.408722-12.480164 3.035736 1.011933 5.7341 2.023774 9.107117 2.698426-3.710266 6.746032-6.071381 14.503936-8.432526 21.924621Z"/>
  <path class="black" d="M335.153961 734.552368v25.972229h11.805573c6.408722 0 14.503967-.33728 16.527771-.67456-.674591 3.710327-2.698395 5.734069-7.083313 5.734069h-21.250031v32.380982h-6.408691V729.8302h35.079345v5.059509h-28.670654Zm116.369049 63.07544-9.781708-26.984131h-23.273834l-9.444427 26.984131h-5.734162l24.285767-68.47229h6.408691l24.623047 68.47229h-7.083374Zm-17.876983-49.920655c-1.686493-4.384887-3.035706-9.444397-3.710297-11.805542h-.337311c-.33728 2.023804-2.023773 7.083313-3.373016 11.805542l-6.408722 17.876953h19.900787l-6.408722-17.876953Zm118.055572 50.595215c-9.781738 0-17.876953-14.841247-25.972229-32.38092h-9.781738v31.70636h-6.408753V729.8302c4.72229 0 9.444458-.674682 14.166748-.674682 11.13086 0 23.611084 3.710388 23.611084 17.202453 0 13.492066-7.083374 15.85315-15.515869 18.214234 9.444458 18.214355 17.202393 28.333374 22.599182 28.333374 5.396851 0 1.349244 0 1.686524-.337342h.33728c0 3.373047-1.686523 5.734131-4.384888 5.734131Zm-29.682495-64.42456c-2.023865 0-4.384949 0-6.408752.33728v26.64685h7.083313c8.769836 0 17.539672-3.710327 17.539672-13.829406 0-10.119019-9.107116-13.829346-18.214233-13.829346Zm138.968262 63.75-2.023865-47.896851c0-3.372986-.33728-9.781738-.33728-11.805542-1.011902 2.361084-4.047669 7.420593-5.734131 10.119019l-14.503967 24.623046h-4.047669l-14.503906-23.948425c-2.361145-3.710266-4.722229-8.432556-6.071411-10.79364v11.130981l-1.011963 48.234131h-5.73407l2.023743-68.135009h6.408752l17.202393 28.333374c1.686462 2.698425 3.372986 6.071472 4.384887 8.432556 1.011963-2.361084 2.698426-5.05951 5.059571-8.769837l15.853149-27.658752h6.408753l3.035705 68.134949h-6.408691Zm47.896789-370.357209c88.035767-157.519806-22.261902-354.503936-204.067474-354.841278-181.468262 0-292.10318 197.321472-204.067474 354.841278-35.753968-52.619018-47.55951-121.765838-33.055542-184.166656C304.122223 83.897644 489.638123 5.643616 629.280945 89.968994c116.369079 68.13501 155.158752 225.317505 79.265869 337.301605Zm-453.333358.337342c-42.162705 6.746032-84.325394 8.095215-126.825394 8.432525-42.5 0-84.662705-1.686493-126.825403-8.432525 42.162698-6.746033 84.325403-8.095215 126.825403-8.432556 42.5 0 84.662689 1.686523 126.825394 8.432556Zm512.698471 0c42.162719-6.746033 84.325378-8.095215 126.825439-8.432556 42.499878 0 84.662598 1.686523 126.825317 8.432556-42.162719 6.746032-84.325439 8.095215-126.825317 8.432525-42.500061 0-84.66272-1.686493-126.825439-8.432525Z"/>
  <path class="black" d="m266.344452 117.965027 9.107147 7.420654 3.373016-4.047607c2.023804-2.361084 4.047608-5.39679 4.384919-6.071411 1.011902 1.011901 1.011902 2.361145 0 4.047607l-6.071442 7.420654 11.468262 9.444458-2.023804 2.361084-24.285706-19.563476 10.11905-12.480164 1.686492 1.349182-8.095245 10.45636Zm46.547607-7.757935c-6.746032 6.746033-16.19046 3.710327-22.261902-2.361084-6.071411-6.071411-7.083313-14.841247-.674591-21.25 6.408722-6.408691 14.503968-5.734131 20.575409.674622 6.071411 6.408691 9.107117 16.19043 2.361084 22.936462Zm-21.249969-21.92456c-5.734162 5.396789-3.373017 12.480163 1.686493 17.539673 5.05954 5.05957 12.817444 8.432556 18.551605 2.698425 5.7341-5.734131 2.023804-13.829346-2.698425-18.551636-5.05954-5.059509-11.805573-7.083313-17.539673-1.686462Zm42.5 3.035705c-2.023804 1.686524-5.39682 3.373047-6.746033 1.349182 0 0 0-.33728-.337311-.67456 2.023804-.337341 4.384919-1.686524 6.071411-3.035706 2.698426-2.023803 4.384949-5.734192 1.686524-8.769836-2.023804-2.698425-6.071411-2.023865-9.107147-1.686524-5.39682 1.011902-8.432526.674561-11.130951-2.698425-3.373017-4.384949-1.349213-9.444458 2.698425-12.480163 1.349213-1.011902 3.035706-2.023804 4.384888-2.698426l1.349212 2.361084c-1.349212.674683-2.698394 1.349243-4.047607 2.361145-4.047638 3.373047-3.710297 6.746033-2.023804 8.769837 2.361115 2.698425 6.071411 1.686523 8.769837 1.349243 5.39682-.674622 8.769836-1.011902 11.468261 2.698364 2.698395 3.373047 2.698395 8.769898-2.698425 13.154785Zm14.841278-46.547607-6.408753 4.047607 15.51587 24.285706-2.361084 1.686523-15.5159-24.285705-8.769836 5.73407-1.349213-2.023743 14.166687-9.107117c2.698395-1.686523 5.39682-3.710388 6.071411-4.384949.674622 1.349183 0 2.698426-1.349182 4.047608Zm15.853149-8.769898 4.722229 9.7818 4.384919-2.361084c2.698425-1.349243 6.071441-3.035767 6.746032-3.710327.337311 1.686462 0 2.698425-2.023803 3.710327l-8.432557 4.047607 6.071442 12.142822 6.071411-3.035705c2.698425-1.349182 5.734162-3.035706 6.408753-3.710327.33728 1.686523 0 3.035766-2.023804 3.710327l-12.480164 6.071472-13.829376-27.996094 14.166687-7.083313 1.011871 2.023804-11.468231 5.734131Zm54.305573 9.107239c-4.047638 1.686463-10.119049-3.710388-16.527802-9.781799-1.349182.67456-2.698425 1.349243-4.384918 1.686523l5.059509 13.492066-2.698364 1.011902-10.793671-29.345215c2.023804-1.011963 4.047638-1.686524 6.071412-2.698426 4.722259-1.686523 10.79364-2.023864 12.817474 3.710328 1.686523 4.047607-.674591 7.757873-3.710327 10.456298 7.083343 6.408753 11.805542 9.444458 14.166687 8.432557 0 0 .674591 0 .674591-.337281.674591 1.349182 0 2.698365-1.011902 3.035706Zm-22.936493-23.273865c-1.011932 0-2.023834.674561-2.698425 1.349244l4.384918 11.4682c1.011902 0 2.023773-.67456 3.035705-1.011902 3.710328-1.349182 6.746033-4.384948 5.39682-8.769775-1.686492-4.72229-6.071411-4.384949-10.119018-3.035767Zm34.067413 26.646851-1.349182-.674622c.674591-2.023803 1.349182-5.05957 1.011902-7.083313 0-1.011901-1.011902-1.686523-1.686493-2.023864 0-.674561.674591-1.349182 1.011902-1.349182 1.686523-.337281 2.698395.674621 3.035705 2.023803.674592 2.698426-1.011901 6.408753-2.023834 8.769837Zm34.067475-13.829407c-4.384919.674622-9.107117-5.39685-14.503968-12.480102-1.349182.337219-3.035705.67456-4.384918 1.011902l2.698395 14.166626-3.035675.674621-5.396851-30.694458c2.023834-.674621 4.047608-1.011902 6.408753-1.349182 5.059539-1.011963 10.79364 0 12.142822 5.73407.674591 4.384949-2.023773 7.757995-5.39679 9.444458 5.734131 7.420654 10.119049 11.468262 12.480164 10.79364 0 0 .674591 0 .674591-.337219.337311 1.349182 0 2.698364-1.686523 3.035644ZM445.78891 8.004761c-1.011932 0-2.023834.33728-3.035706.674621l2.023774 12.142823c1.011932 0 2.361114 0 3.373016-.337281 4.047638-.674621 7.420654-3.035766 6.746033-7.757934-1.011902-4.722229-5.05951-5.396851-9.444428-4.722229Zm30.019806 24.960327L473.110352 1.93335h3.035705l2.698425 31.031738h-3.035766Zm39.127014-9.781738c-3.035675 0-5.059509-2.361145-4.722199-5.396851 0-3.035706 2.361115-5.059509 5.396821-4.722229 3.035705 0 5.059509 2.361145 4.722229 5.39679 0 3.035766-2.361145 5.05957-5.396851 5.05957Zm43.849243-14.841309-2.361145 10.79364 4.722229 1.011902c3.035706.674622 6.746033 1.349243 7.420593 1.011902-.67456 1.686523-1.686462 2.361145-3.710266 2.023865l-9.107116-2.023865-2.698426 13.154785 6.408692 1.349243c3.035766.674561 6.746032 1.349182 7.420654 1.011902-.674622 1.686523-1.686523 2.361084-3.710327 2.023743l-13.492066-2.698426 6.408753-30.694397 15.515869 3.035706v2.361084c-.337341 0-12.817444-2.698364-12.817444-2.698364Zm21.924561 35.753967c-2.361084-.67456-5.734131-2.698425-5.05951-5.059509v-.674561c1.349183 1.686463 3.710328 2.698365 5.734131 3.372986 3.035706 1.011841 7.083313.337281 8.432495-3.710327 1.011963-3.373047-1.686462-6.071472-4.047607-8.432556-3.710327-4.047607-5.39679-6.746033-4.047607-10.45636 1.686523-5.059509 7.083313-6.408691 11.805603-5.059509 1.686462.33728 3.372985 1.349243 4.722168 2.023804l-1.011902 2.361084c-1.011841-.674561-2.698365-1.686463-4.047608-2.023743-5.059509-1.686524-7.757934.67456-8.432556 3.035705-1.011902 3.372986 1.686524 6.071412 3.710327 8.095215 3.710327 4.047669 5.734131 6.746033 4.384949 11.130921-1.349243 4.047607-5.734131 7.420654-12.480164 5.05957Zm46.547668-13.829345-7.083374-3.035706-11.468262 26.64679-2.698425-1.011902 11.468262-26.64679-9.781738-4.047607 1.011901-2.023865 15.51587 6.408752c2.698425 1.349183 6.071411 2.361145 7.083374 2.698365-.674622 1.349243-2.023865 2.023864-4.047608 1.349243Zm27.658692 14.841308 1.011901-2.361206c2.023804.674683 3.710328 1.349243 5.39679 2.361206 4.72229 3.035645 6.746033 8.432495 3.710388 13.829285-3.035705 5.39685-9.107178 6.408752-21.924621 9.781799l8.095214 5.059509c1.349244 1.011902 2.698426 1.686524 4.047669 2.361084-1.011902 1.686524-2.698425 1.686524-4.384949.674622l-12.142883-7.757935 1.011902-1.686523c13.154785-3.035706 19.226196-4.722168 21.924621-9.444458 3.035706-4.722168 1.011902-8.769775-2.361084-10.79364-1.349243-1.011902-3.035766-1.686524-5.059509-2.023743Zm12.480163 44.186463c-6.746033-5.05951-2.023804-14.166687 2.023804-19.226197 6.746033-8.432556 13.492065-10.45636 18.214294-6.746032 6.746033 5.39685 2.023804 13.829406-2.023803 19.226196-4.047669 5.059509-11.468262 11.805542-18.214295 6.408752Zm18.888916-24.285706c-5.059509-3.710327-11.805542 3.372986-14.841308 7.083313-2.698365 3.710327-7.757874 12.142883-3.035706 15.85321 3.373047 2.698426 9.107117.337281 14.503967-6.746032 3.035706-4.047608 8.432556-11.805542 3.035706-15.853211Zm16.190491 15.515869 1.349182-2.023804c1.686523 1.011902 3.372986 2.023804 4.722168 3.372986 4.047668 4.047608 5.05957 9.781739.674683 14.166687-4.384949 4.384888-10.11908 4.722229-23.273865 5.05951l6.746033 6.408752c1.011901 1.011902 2.361084 2.023804 3.710327 3.035706-1.349243 1.349182-3.035706 1.011901-4.384888 0l-10.456421-10.11908 1.349243-1.686462c13.492066-.337342 19.563538-1.011902 23.273804-4.722229 3.710327-4.047669 2.361084-8.432557 0-10.793702-1.349182-1.349182-2.698425-2.361084-4.384949-2.698364Zm20.575378 20.575379 1.686463-2.023804c1.686523 1.349182 3.035766 2.361145 4.384948 4.047607 3.710328 4.384949 4.047608 10.11908-.674621 14.166687-4.722229 4.047608-10.45636 3.710327-23.611084 3.035706l6.071411 7.083313c1.011902 1.349182 2.023804 2.361145 3.373047 3.373047-1.349243 1.349182-3.035767.67456-4.047669-.674622l-9.444397-10.79364 1.686524-1.349243c13.492065 1.011963 19.563415 1.011963 23.948364-2.698364 4.047608-3.710328 3.372986-8.095276 1.011902-10.793641-1.011902-1.349243-2.698425-2.361145-4.047607-3.373046Z"/>
</svg>
