<svg xmlns="http://www.w3.org/2000/svg" viewBox="0 0 2048 540">
  <path class="black" d="m698.355591 251.159607-46.618775-57.192017c-5.767273-6.728546-10.573303-14.418182-15.379333-22.58844h-.480591v79.780457h-29.797546V143.023376c0-4.80606-1.922425-8.650909-6.728516-8.650909-4.80603 0-2.883606 0-3.844849.961273l-1.441772-.961273c0-13.456909 10.573303-20.665985 24.991455-20.665985s23.069092 6.247803 31.23938 16.821197l29.797546 37.487153c7.209046 8.650909 13.45691 18.263031 18.263001 28.836334h.480591v-81.22229h29.797546v136.011352h-29.797546Zm115.825867 3.844849c-45.17688 0-71.129578-32.200562-71.129578-75.455048 0-43.254486 32.681152-67.765381 73.532654-67.765381 40.85144 0 72.571411 21.627228 72.571411 65.842926 0 44.215759-29.797547 77.377503-74.974487 77.377503Zm1.922424-120.631989c-25.952698 0-32.200562 24.991547-32.200562 46.138153 0 21.146607 6.247864 51.424774 32.681214 51.424774 26.433288 0 32.200561-31.71994 32.200561-51.905426 0-20.185394-7.689697-46.138061-32.200561-46.138061Zm185.513733 118.228973c-31.719971 0-47.099304-28.355712-54.308411-58.153289h-8.65094v56.230896h-39.409607V115.628876c17.78241-.961212 35.084229-1.441834 52.866577-1.441834 25.952698 0 58.15326 5.767243 58.15326 37.487244 0 17.301819-12.495728 30.758728-27.394471 36.526031 5.767212 11.534516 25.952698 45.17688 40.37085 45.17688 14.418213 0 3.844849 0 5.286621-.961181l.961182.961181c-1.441773 13.937531-14.418091 18.263031-27.875061 18.263031Zm-53.82782-117.2677c-2.883606 0-5.767273 0-9.131531.961182v38.448425c2.883667 0 5.767334.48056 9.131531.48056 12.976379 0 22.107849-6.247802 22.107849-20.185394 0-13.93753-9.13147-19.704773-22.107849-19.704773Zm162.925293 5.286591h-21.146729v110.539276h-39.890136V140.620331h-36.045472v-25.472107h84.106019c12.976318 0 28.836303-.961182 32.681152-1.441742l.961182 1.441742c0 18.263031-8.170289 25.472107-21.146607 25.472107Zm120.151367 110.539276v-59.595062h-48.060547v59.595062h-39.409668V115.148224h39.409668v50.944214h48.060547v-50.944214h39.409546v136.011383h-39.409546Zm147.545776-110.539276v33.161835h16.340699c12.976318 0 28.836303-.961274 32.681152-1.441834l.961182 1.441834c0 18.262939-8.170288 24.510833-21.146607 24.510833h-29.316894v52.866608h-39.40979V115.148224h90.834472v25.472107h-51.424682Zm128.321656 114.384125c-45.17688 0-71.129517-32.200562-71.129517-75.455048 0-43.254486 32.681152-67.765381 73.532593-67.765381 40.85144 0 72.571411 21.627228 72.571411 65.842926 0 44.215759-29.797485 77.377503-74.974487 77.377503Zm2.403076-120.631989c-25.952637 0-32.200562 24.991547-32.200562 46.138153 0 21.146607 6.247925 51.424774 32.681153 51.424774 26.433349 0 32.200561-31.71994 32.200561-51.905426 0-20.185394-7.689575-46.138061-32.200561-46.138061Zm115.825928 119.670807c-16.821167 0-37.006592-3.364227-37.006592-25.472107v-3.844879l1.441772-.961182c6.728516 4.325409 17.301758 7.209076 27.394532 7.209076 15.379394 0 23.069091-6.728454 23.069091-15.379364 0-8.650909-4.80603-11.053924-20.185547-18.743652-17.782348-9.13147-30.758667-18.743592-30.758667-39.890198 0-21.146667 16.821167-43.735107 57.672608-43.735107 40.851562 0 19.224243.961181 27.875244 1.922363l-3.844971 25.952759c-6.728393-2.403046-15.859985-4.325501-24.030273-4.325501-13.9375 0-18.74353 6.247894-18.74353 12.495789 0 6.247864 8.650879 13.9375 22.107788 20.185394 16.821167 8.170288 30.758789 19.224213 30.758789 39.409637 0 20.185486-12.015137 45.176972-55.269654 45.176972Zm155.716186-113.422943h-21.146606v110.539276h-39.890259V140.620331h-36.04541v-25.472107h84.105957c12.976318 0 28.836304-.961182 32.681152-1.441742l.961304 1.441742c0 18.263031-8.17041 25.472107-21.146851 25.472107Zm66.804077 0v30.758819h14.418213c12.976319 0 28.836304-.961273 32.681275-1.441833l.961059 1.441833c0 18.26294-8.170166 24.510834-21.146606 24.510834h-27.394409v28.836304h22.107666c12.97644 0 28.836425-.961182 32.681274-1.441834l.961182 1.441834c0 18.263031-8.170166 26.433319-21.146607 26.433319h-74.493896V115.148224h88.911987v25.472107h-49.021606Zm166.085572 112.576385c-31.715577-.529846-46.619263-29.138458-53.32959-59.052307-2.883179-.048157-6.246948-.10437-8.649658-.144501l-.939209 56.223053-39.404297-.658264 2.255737-135.031311c17.79602-.664032 35.103516-.855621 52.883301-.558594 25.949219.433472 58.04895 6.737763 57.519043 38.453339-.288941 17.299408-13.007813 30.545715-28.000611 36.063385 5.573609 11.629212 25.194458 45.604065 39.610596 45.844879 14.416138.240845 3.844238.06424 5.302002-.872741l.944946.977111c-1.674438 13.911499-14.721191 18.019654-28.176269 17.794861Zm-51.861695-118.150451c-2.883301-.048157-5.766357-.096314-9.14624.808532l-.642212 38.443085c2.883301.048157 5.758545.576813 9.122192.633026 12.97461.216736 22.209107-5.877685 22.441895-19.813324.232788-13.935608-8.801025-19.854553-21.775635-20.071319Zm-893.285278 204.064148v37.006591h16.821167c9.131592 0 20.666138-.480529 23.549683-.961181-.961182 5.286682-3.844849 8.170288-10.092652 8.170288h-30.278198v46.138153h-9.13147v-97.082306h49.98291v7.209106h-40.85144Zm165.808838 89.873199-13.9375-38.448425h-33.161743l-13.45691 38.448425h-8.17041l34.603638-97.562897h9.13147l35.084228 97.562897h-10.092773Zm-25.472046-71.129608c-2.403076-6.247803-4.32544-13.456909-5.286621-16.821198h-.480591c-.480591 2.883667-2.883667 10.092743-4.806152 16.821198l-9.13147 25.472107h28.355713l-9.13147-25.472107Zm168.211914 72.09082c-13.9375 0-25.472046-21.146606-37.006592-46.138092h-13.9375v45.17688h-9.131592v-96.601654c6.728516 0 13.45691-.961243 20.185425-.961243 15.859986 0 33.642456 5.286682 33.642456 24.510895 0 19.224213-10.092773 22.58844-22.10791 25.952667 13.457031 25.952729 24.510864 40.370911 32.200562 40.370911 7.689697 0 1.922485 0 2.403076-.480652h.480591c0 4.806061-2.403077 8.170288-6.247925 8.170288Zm-42.293213-91.795593c-2.883667 0-6.247925 0-9.131592.48053v37.967895h10.092774c12.495727 0 24.991455-5.286682 24.991455-19.704834 0-14.418182-12.976319-19.704803-25.952637-19.704803Zm198.0094 90.834381-2.883667-68.245941c0-4.806061-.480591-13.937561-.480591-16.821198-1.441773 3.364228-5.767334 10.573304-8.170288 14.418152l-20.666016 35.084198h-5.767334l-20.665894-34.122986c-3.364379-5.286621-6.728515-12.015136-8.651001-15.379364v15.859986l-1.441772 68.726593h-8.170288l2.883545-97.082337h9.131592l24.510864 40.37088c2.402954 3.84488 4.80603 8.65091 6.247803 12.015137 1.441894-3.364227 3.844848-7.209076 7.209106-12.495758l22.588501-39.409637h9.13147l4.325439 97.082275h-9.131469Z"/>
  <path class="black" d="M391.998413 273.038635c.34198-.683868 1.025848-1.709717 1.367798-2.393585 1.367737-2.393616 2.735474-4.78717 2.051605-7.180725 0-1.709686-1.709686-3.419373-3.419403-3.761353-1.025818 0-1.709686-1.367736-1.709686-2.393554 0-2.393555 0-4.78711-1.367737-6.838776-1.025818-1.367737-2.393555-2.393555-3.077484-4.103241-.683869-1.025848-1.025757-2.051666-.683869-3.077423 0-.683929 0-1.709717-.683837-2.051666-.683869-.683869-1.025849-1.709687-1.367737-3.077423 0-.68393-.34198-1.367798-1.025849-1.709687-.683868-.34198-1.367767-.34198-2.051635 0-.683869-2.051666-.683869-4.445221-.683869-6.838775 0-1.709717-1.367737-2.735535-3.077423-2.393616-1.709717.683899-3.077484-.683868-3.077484-2.393555v-2.393585c.341949-1.709686-1.025818-2.735504-2.735535-2.393555-1.709686.341919-3.077423-.683868-3.077423-2.393554v-3.077484c.34195-1.709687-1.025818-2.735505-2.735504-2.393555-1.709717.683868-3.419403.683868-5.129089 1.367737-1.367737.341949-2.735535-.683869-2.735535-2.051605v-4.103241c0-1.709717-1.709686-2.735535-3.419373-2.051667-.341918 0-1.025787.683869-1.367736.683869-1.367737.683868-3.077423 0-3.419373-1.709687 0-1.709686-.683868-3.077423-.683868-4.787139 0-1.709687-2.051667-2.393555-3.419403-1.367768l-1.367768 1.025818c-1.367737 1.025818-3.077453 0-3.419403-1.367737 0-1.025818-.683868-2.393554-.683868-3.419372-.341919-1.709717-2.735504-2.393585-3.761292-1.025849-.341949.34198-.683929 1.025849-1.025818 1.367737-1.025848 1.367798-3.419403 1.025849-3.761352-.683868-.341919-1.367737-1.025818-2.735504-1.709686-4.103241-1.367737 3.419372-2.735535 7.180725-3.761292 10.600128-.683929-2.051666-1.367798-3.761353-2.051666-5.813019-2.051666 4.445221-3.419373 9.232391-3.761353 14.019531l-2.735473-4.103271c0 4.103271 0 8.548462.341919 12.651733-1.709687 3.419373-3.419373 7.522644-5.470978 12.309815 0 0-3.077484 7.522644-4.445221 18.46466-2.735535 21.200196-19.14859 38.6391-40.690735 40.348755-6.496826.683899-13.677551 0-21.542099-1.367767-29.748718-6.154846-42.400436-35.219635-47.52951-50.606873-5.470994-17.096954-16.754975-32.142273-32.484177-40.690734-3.761292-2.051606-7.864609-4.103272-12.651718-5.471009 3.419388-5.812988 1.025818-14.36145 1.025818-14.36145 0-1.709717 0-3.419403-1.367783-5.471008-2.051605-4.103241-5.812942-2.735504-8.548462-1.025818-2.051605 1.367737-4.445175 2.051666-6.838776 1.367737-4.44519-1.367737-9.232337 1.709686-9.232337 1.709686-9.574273 1.025848-10.600098 10.942078-10.600098 10.942078-10.942024 7.522644-4.787148 14.361419-4.787148 14.361419-9.574264 2.735535-13.677543 10.600067-14.703346 13.677552 0 .341918 0 1.025817.683869.683868 16.071128-5.129089 19.490516-1.025818 19.490516-1.025818-8.548462 26.671234 15.729172 24.961517 15.729172 24.961517s-28.038986 61.207001-3.077454 114.20752c2.73552 5.471039 4.445221 11.283966 5.812958 17.096924 3.419388 15.387237 15.387238 46.845642 56.077972 67.703888 6.496811 3.419372 12.651719 7.522644 18.122712 12.309814 4.103302 3.419373 9.916259 7.864594 16.755035 11.283997-3.419388 6.154846-6.154907 12.993622-9.232346 19.148529-2.051651 4.445221-4.445205 12.309814-7.864593 15.387237-3.761353 3.419373-14.019516-1.025818-18.464722-2.051605-5.812957-1.025818-9.916198-.683929-15.729156.683869 3.077438.683868 32.484176 7.522644 32.142227 9.23233 0 1.025818-11.967865 1.025818-12.993683 1.367737-6.154861.683929-10.942032 2.393615-14.703323 7.522705 9.23233-1.025849 18.46466-2.393616 27.697006-3.077484 3.761337 0 7.864593 0 11.283981-1.367737 2.051651-.683869 3.419388-1.709686 5.471039-1.709686 2.051605 0 4.787125 1.709686 6.496811 2.051605-1.025818 3.077453-2.393555 5.812988-4.103241 7.522705-4.103256 4.445129-17.096939.341858-22.567978 0-7.180679-.68396-12.309769 0-18.80664 2.735412 4.103256.68396 40.00682 5.47107 39.664917 7.522706 0 1.367736-14.019501 2.735473-15.729203 3.077453-7.522644 1.709656-12.651718 4.103272-16.754974 10.942017 10.942032-2.393555 21.884064-4.78711 32.82608-6.838745 4.445221-.683899 9.232392-1.025879 13.677551-2.735535 2.393616-1.025818 3.761353-2.393555 6.496872-2.735474 2.393555 0 5.812943 1.367737 8.206498 1.709656.341964 0 7.864593.341919 7.522644 0-7.522644-6.496826-15.729142-13.335632-14.703324-24.277649 3.761307 2.393555 9.916214 2.051666 14.361435 3.077454-2.393585-2.051605-4.787185-4.103272-7.180755-6.496826-3.761292-3.419404-5.470978-3.761353-4.103241-9.232331 1.709686-7.864593 6.154907-15.729217 9.916198-22.909881 7.864594 0 16.071167-1.025818 24.961518-4.445221 32.142273-11.967865 46.503692-37.955231 52.31665-53.684357 3.419373-8.890442 7.864594-17.096954 13.677551-24.619629 2.051636-2.735474 4.445221-5.812958 6.838776-9.232361 3.761353-.683838 7.522644-2.051574 11.283966-3.419372-1.367767-1.025818-2.735504-1.709687-3.761322-2.735535 4.103241 0 7.864594-1.025757 11.625946-2.393555-1.367798-.341919-3.077484-1.025818-4.445221-1.367736 3.077423 0 6.154907-2.051636 7.864594-4.445191-1.709687 0-3.419373-.683899-4.787171-.683899 3.077484-2.735504 5.812958-5.471008 8.890442-8.206543-.683868-.683868-1.709717-1.025757-2.393585-1.367737-1.367767-.341949-2.051636-2.393554-.683899-3.761352 1.367767-1.367737 2.393616-2.735474 3.077484-4.44513.683869-1.367797 0-3.077514-1.709717-3.419403-1.025818 0-2.393554 0-3.419372-.341949v-.683899c1.709686-1.367767 3.419372-2.735504 5.129089-4.44519-.683868-.683869-1.709717-1.025818-2.735535-1.367737 2.393555-2.051636 4.103241-4.787171 4.78711-7.864624-.683869 0-1.367706-.683838-2.393555-.683838 0-.68393.34198-1.367798.683869-2.051666.683929-.34195 1.367797-1.025818 2.051666-1.367707 1.367737-.68396 2.735504-1.709717 2.735504-3.419403 0-.683929 0-1.367798-.341949-2.051666-.683869-1.025818-.683869-2.051636 0-3.077423 3.077484-4.103302 3.761352-9.57431 1.709686-14.361481v-1.367737c1.025818-3.761322 2.051666-7.864563 3.077484-11.625854 0-1.025849.683868-2.051666 0-3.077515-.34195-1.025818-2.051666-1.367706-2.393616-.341888 1.709686-2.735535 3.419403-5.471039 4.787171-8.206574h-3.419373ZM226.158157 485.724487c2.73552 2.051636 6.838776 2.393555 10.258164 3.077423-.683869 2.051667-1.367737 3.761353-2.051605 5.471039-.683915 2.051666-1.709687 4.78711-2.393616 7.522644-3.761292-4.445221-6.838776-9.916198-5.812943-16.413055Zm10.600113 2.051636c-1.367782-1.367767-2.735519-3.077454-4.103241-4.44519-3.077484-3.419403-4.103317-3.761353-2.735534-7.864624 1.367736-4.103241 3.761306-8.548462 6.496826-12.651703 3.077469 1.025818 5.812942 2.051605 9.23233 2.735504-3.761291 6.838775-6.154861 14.703338-8.548462 22.226013Z"/>
  <path class="black" d="M454.573212 434.091736c89.246002-159.685394-22.567963-359.377564-206.87291-359.719513-183.963032 0-296.118908 200.034119-206.872913 359.719513C4.581892 380.749329-7.385963 310.651886 7.317386 247.393219 44.246777 85.998169 232.313065 6.668335 373.875671 92.153015c117.968842 69.071655 157.291809 228.41507 80.355591 341.938721Z"/>
  <path class="black" d="m5.949652 120.533936 9.232334 7.522644 3.419388-4.103241c2.051626-2.393586 4.103254-5.471009 4.445213-6.154908 1.025801 1.025818 1.025801 2.393616 0 4.103302l-6.154907 7.522644 11.625921 9.57428-2.051628 2.393555-24.619601-19.832459 10.25816-12.651702 1.709694 1.367736-8.206534 10.600098Zm47.187525-7.864594c-6.838772 6.838776-16.413041 3.761353-22.56795-2.393555-6.154907-6.154907-7.180706-15.045288-.683866-21.542144 6.496814-6.496827 14.70335-5.812958 20.858257.683899 6.154881 6.496826 9.232334 16.413024 2.393559 23.2518ZM31.595055 90.443329c-5.812973 5.471039-3.419388 12.651764 1.709694 17.780853 5.129081 5.129089 12.993656 8.548462 18.806629 2.735474 5.812946-5.812958 2.051624-14.01947-2.73552-18.806641-5.129081-5.129089-11.967857-7.180664-17.780803-1.709686Zm43.084274 3.077484c-2.051628 1.709686-5.471016 3.419373-6.838776 1.367737 0 0 0-.341919-.341934-.683869 2.051628-.34198 4.445183-1.709716 6.154877-3.077423 2.735527-2.051666 4.445213-5.813018 1.709694-8.890442-2.051621-2.735534-6.154877-2.051666-9.232331-1.709686-5.471016 1.025818-8.548469.683869-11.283989-2.735535-3.419387-4.44522-1.367759-9.574279 2.73552-12.651702 1.36776-1.025849 3.077453-2.051667 4.445186-2.735535l1.367764 2.393555c-1.367764.683929-2.735497 1.367797-4.103256 2.393615-4.103279 3.419403-3.761322 6.838776-2.051628 8.890381 2.393562 2.735535 6.154884 1.709686 8.890403 1.367798 5.471016-.683929 8.890396-1.025848 11.625924 2.735443 2.735488 3.419403 2.735488 8.890442-2.735528 13.335663Zm15.045303-47.187561-6.496841 4.103241L98.95697 75.056091l-2.393562 1.709687L80.834206 52.14621l-8.890404 5.812927-1.36776-2.051605 14.361443-9.232331c2.735496-1.709686 5.471016-3.761322 6.154884-4.44519.683891 1.367706 0 2.735504-1.367737 4.103241Zm16.071114-8.890442 4.78714 9.91626 4.44519-2.393555c2.73552-1.367798 6.154907-3.077484 6.838776-3.761352.341957 1.709716 0 2.735534-2.051628 3.761352l-8.54847 4.103272 6.154907 12.309753 6.154885-3.077423c2.735519-1.367737 5.812965-3.077423 6.496834-3.761353.341934 1.709687 0 3.077485-2.051621 3.761353l-12.651726 6.154907-14.0195-28.38092 14.361434-7.180756 1.025803 2.051666-11.625893 5.812958Zm55.052154 9.232391c-4.103317 1.709717-10.258163-3.761322-16.755035-9.916229-1.367737.683838-2.735519 1.367768-4.445206 1.709686l5.129074 13.677552-2.735473 1.025818-10.942047-29.748688c2.05162-1.025818 4.103286-1.709656 6.154876-2.735474 4.787171-1.709717 10.942032-2.051697 12.993683 3.761353 1.709702 4.103241-.683868 7.864532-3.761352 10.600036 7.18074 6.496888 11.967865 9.574311 14.36148 8.548462 0 0 .683869 0 .683869-.341888.683853 1.367737 0 2.735473-1.025833 3.077423Zm-23.251846-23.59378c-1.025833 0-2.051651.683838-2.735519 1.367798l4.445205 11.625885c1.025833 0 2.051606-.683869 3.077439-1.025849 3.761337-1.367736 6.838775-4.44519 5.471039-8.89038-1.709702-4.787171-6.154908-4.445191-10.258164-3.077454Zm34.535782 27.013183-1.367737-.683929c.683869-2.051605 1.367737-5.129089 1.025818-7.180664 0-1.025848-1.025818-1.709717-1.709686-2.051666 0-.683869.683868-1.367737 1.025818-1.367737 1.709701-.34195 2.735473.683868 3.077438 2.051605.683868 2.735504-1.025833 6.496857-2.051651 8.890412Zm34.535828-14.0195c-4.445221.683868-9.232346-5.471039-14.703385-12.651764-1.367721.341919-3.077423.683899-4.445206 1.025879l2.73552 14.361389-3.077423.683868-5.471039-31.116424c2.051651-.683899 4.103241-1.025818 6.496857-1.367737 5.129089-1.025818 10.942032 0 12.309768 5.812927.683869 4.445191-2.051605 7.864624-5.470993 9.57428 5.812943 7.522675 10.258164 11.625916 12.651718 10.942047 0 0 .683869 0 .683869-.341919.341965 1.367737 0 2.735474-1.709686 3.077454ZM187.861038 9.061951c-1.025833 0-2.051666.341919-3.077438.683899l2.051605 12.309753c1.025833 0 2.393555 0 3.419388-.341919 4.103256-.683899 7.522644-3.077515 6.838776-7.864624-1.025834-4.787109-5.12909-5.471008-9.574296-4.787109Zm30.432511 25.303436L215.55809 2.907043h3.077423l2.73552 31.458344h-3.077484Zm39.664917-9.916168c-3.077424 0-5.129075-2.393616-4.787125-5.47107 0-3.077392 2.39357-5.129089 5.470993-4.787109 3.077484 0 5.129089 2.393555 4.78717 5.471008 0 3.077454-2.393615 5.129029-5.471038 5.129029ZM302.410492 9.40387l-2.393555 10.942016 4.78711 1.025818c3.077484.683899 6.838775 1.367798 7.522644 1.025818-.683869 1.709717-1.709687 2.393555-3.761292 2.051697l-9.23233-2.051697-2.735535 13.335602 6.496826 1.367798c3.077484.683868 6.838776 1.367736 7.522644 1.025818-.683868 1.709686-1.709686 2.393554-3.761291 2.051605l-13.677551-2.735535 6.496826-31.116394 15.729187 3.077454v2.393554c-.34195 0-12.993683-2.735473-12.993683-2.735473Zm22.226013 36.245514c-2.393555-.683869-5.812927-2.735505-5.129059-5.12909v-.683868c1.367707 1.709717 3.761322 2.735473 5.812928 3.419403 3.077484 1.025757 7.180725.341888 8.548461-3.761353 1.025849-3.419372-1.709686-6.154907-4.103241-8.548462-3.761352-4.103241-5.471038-6.838775-4.10324-10.600128 1.709686-5.129089 7.180664-6.496826 11.967834-5.129089 1.709686.34198 3.419403 1.367798 4.78714 2.051636l-1.025849 2.393615c-1.025756-.683899-2.735473-1.709716-4.10324-2.051635-5.12909-1.709656-7.864594.683899-8.548462 3.077453-1.025849 3.419373 1.709686 6.154907 3.761322 8.206482 3.761322 4.103302 5.812957 6.838776 4.445221 11.283997-1.367768 4.103241-5.812989 7.522644-12.651764 5.129089Zm47.187561-14.019501-7.180725-3.077423-11.625915 27.013122-2.735505-1.025818 11.625885-27.013153-9.916198-4.103271 1.025818-2.051636 15.729156 6.496887c2.735535 1.367737 6.154907 2.393555 7.180725 2.735474-.683868 1.367767-2.051636 2.051636-4.103241 1.367767Zm28.038971 15.045318 1.025818-2.393615c2.051605.683929 3.761291 1.367798 5.470978 2.393615 4.78717 3.077424 6.838775 8.548493 3.761352 14.019471-3.077423 5.471038-9.23233 6.496856-22.226013 9.916259l8.206513 5.129059c1.367767 1.025788 2.735504 1.709717 4.103302 2.393585-1.025818 1.709687-2.735535 1.709687-4.445221.683869l-12.309815-7.864624 1.025849-1.709686c13.335571-3.077424 19.490478-4.78711 22.226013-9.57428 3.077423-4.78714 1.025818-8.890381-2.393585-10.942047-1.367768-1.025818-3.077454-1.709687-5.129059-2.051606Zm12.651703 44.793946c-6.838776-5.12909-2.051605-14.36142 2.051666-19.490479 6.838776-8.548492 13.677552-10.600128 18.464661-6.838775 6.838776 5.471038 2.051666 14.0195-2.051605 19.490478-4.103302 5.129089-11.625946 11.967865-18.464722 6.496887Zm19.14859-24.619568c-5.129059-3.761353-11.967834 3.419372-15.045319 7.180725-2.735473 3.761291-7.864563 12.309753-3.077423 16.071106 3.419373 2.735535 9.232331.341919 14.70337-6.838776 3.077423-4.103241 8.548461-11.967834 3.077423-16.071106Zm16.413086 15.729187 1.367737-2.051636c1.709686 1.025818 3.419372 2.051636 4.787109 3.419373 4.103302 4.103271 5.12909 9.916198.68393 14.361419-4.445221 4.445221-10.258179 4.787171-23.593811 5.12909l6.838775 6.496856c1.025818 1.025788 2.393555 2.051606 3.761353 3.077424-1.367798 1.367736-3.077484 1.025848-4.445221 0l-10.600128-10.258149 1.367798-1.709686c13.677551-.34198 19.832458-1.025848 23.59375-4.78714 3.761352-4.103302 2.393554-8.548462 0-10.942077-1.367737-1.367737-2.735535-2.393555-4.445221-2.735474Zm20.858215 20.858246 1.709687-2.051606c1.709716 1.367737 3.077484 2.393555 4.445221 4.103241 3.761352 4.445221 4.103271 10.258179-.683869 14.36142-4.78717 4.103272-10.600128 3.761353-23.935699 3.077423l6.154907 7.180756c1.025757 1.367737 2.051605 2.393555 3.419372 3.419372-1.367767 1.367737-3.077484.683869-4.103302-.683868l-9.574249-10.942017 1.709717-1.367797c13.677551 1.025817 19.832397 1.025817 24.277618-2.735505 4.103241-3.761291 3.419373-8.206512 1.025818-10.942047-1.025818-1.367737-2.735534-2.393554-4.103271-3.419372Z"/>
</svg>
