<svg xmlns="http://www.w3.org/2000/svg" viewBox="0 0 129.741 129.841">
  <path d="M64.8457 126.853c17.3818 0 32.0244-25.849 32.0244-61.8081 0-36.1084-14.5928-62.00681-32.0244-62.00681-17.3818 0-32.0244 25.89841-32.0244 62.00681 0 35.9591 14.6924 61.8081 32.0244 61.8081Zm0-117.09128c12.999 0 24.5537 25.20118 24.5537 55.28318 0 29.2852-11.5547 55.0841-24.5537 55.0841-12.9492 0-24.5537-25.7989-24.5537-55.0841 0-30.082 11.6045-55.28318 24.5537-55.28318ZM61.21 3.98438V125.558h7.3212V3.98438Zm3.6357 86.01272c-19.5732 0-36.8057 5.1299-45.8203 13.0989l5.5781 4.582c8.666-6.624 22.5615-10.3596 40.2422-10.3596 17.7305 0 31.626 3.7356 40.2923 10.3596l5.578-4.582c-9.015-7.969-26.2472-13.0989-45.8703-13.0989ZM124.462 61.21H5.2793v7.3212H124.462ZM64.8457 40.0928c19.6231 0 36.8553-5.1299 45.8703-13.0987l-5.578-4.582c-8.6663 6.624-22.5618 10.3594-40.2923 10.3594-17.6807 0-31.5762-3.7354-40.2422-10.3594l-5.5781 4.582c9.0146 7.9688 26.2471 13.0987 45.8203 13.0987Zm0 89.6482c35.8093 0 64.8953-29.036 64.8953-64.8455C129.741 29.0859 100.655 0 64.8457 0 29.0361 0 0 29.0859 0 64.8955c0 35.8095 29.0361 64.8455 64.8457 64.8455Zm0-7.57c-31.626 0-57.27539-25.6495-57.27539-57.2755 0-31.6758 25.64939-57.32519 57.27539-57.32519 31.6758 0 57.3253 25.64939 57.3253 57.32519 0 31.626-25.6495 57.2755-57.3253 57.2755Z"/>
</svg>
