<?xml version="1.0" standalone="no"?>
<!DOCTYPE svg PUBLIC "-//W3C//DTD SVG 20010904//EN"
 "http://www.w3.org/TR/2001/REC-SVG-20010904/DTD/svg10.dtd">
<svg version="1.0" xmlns="http://www.w3.org/2000/svg"
 width="700.000000pt" height="700.000000pt" viewBox="0 0 700.000000 700.000000"
 preserveAspectRatio="xMidYMid meet">
<metadata>
Created by potrace 1.14, written by Peter Selinger 2001-2017
</metadata>
<g transform="translate(0.000000,700.000000) scale(0.100000,-0.100000)"
fill="#000000" stroke="none">
<path d="M755 5509 c-253 -21 -410 -84 -546 -219 -101 -100 -154 -199 -185
-341 -9 -45 -12 -174 -3 -196 11 -29 151 -123 184 -123 14 0 34 10 46 24 26
30 60 28 76 -4 10 -20 13 -344 13 -1566 l0 -1541 21 -24 20 -24 491 0 c511 0
546 2 549 42 1 10 3 418 4 908 2 490 3 892 4 894 1 2 30 -35 66 -83 59 -78
232 -294 245 -306 5 -5 84 -101 107 -130 11 -14 246 -302 281 -345 9 -11 55
-68 101 -125 47 -58 99 -121 115 -141 44 -53 61 -73 156 -190 164 -202 395
-484 410 -501 8 -9 26 -21 40 -26 25 -10 902 -15 950 -6 55 10 52 -105 52
1973 -1 1059 -1 1934 -1 1944 -1 9 -10 26 -21 37 -19 19 -33 20 -520 20 -487
0 -501 -1 -520 -20 -23 -23 -21 73 -21 -1087 0 -398 -2 -723 -3 -723 -2 0 -16
19 -32 43 -16 23 -33 47 -37 52 -4 6 -25 33 -45 61 -47 65 -49 67 -337 430
-132 165 -252 316 -267 335 -15 19 -36 45 -47 59 -11 14 -102 129 -202 255
-269 340 -399 460 -597 552 -122 56 -246 83 -442 97 -14 1 -61 -1 -105 -5z"/>
<path d="M4251 5462 c-14 -7 -29 -19 -33 -25 -4 -7 -8 -885 -8 -1952 0 -1893
1 -1941 20 -1965 l19 -25 618 -1 c673 -1 676 0 687 53 3 15 5 314 5 663 0 349
0 655 0 680 l1 45 388 1 c256 0 406 5 442 12 30 7 66 14 78 17 50 9 191 86
239 130 107 95 183 250 209 423 3 20 7 48 10 62 2 14 4 64 5 113 1 83 -1 90
-32 139 -54 84 -64 90 -139 83 -222 -19 -309 -24 -505 -31 -210 -7 -656 -11
-672 -6 -10 3 -13 75 -13 316 l0 312 663 -1 c713 -1 710 -1 723 50 2 11 3 215
2 454 l-3 434 -23 15 c-21 14 -166 16 -1340 16 -1066 1 -1321 -1 -1341 -12z"/>
</g>
</svg>
